<svg id="Group_13132" data-name="Group 13132" xmlns="http://www.w3.org/2000/svg" xmlns:xlink="http://www.w3.org/1999/xlink" width="16.845" height="17.333" viewBox="0 0 16.845 17.333">
  <defs>
    <clipPath id="clip-path">
      <rect id="Rectangle_11" data-name="Rectangle 11" width="16.845" height="17.333" fill="#00a48e"/>
    </clipPath>
  </defs>
  <g id="Group_14" data-name="Group 14" clip-path="url(#clip-path)">
    <path id="Path_16" data-name="Path 16" d="M174.845,70.583a4.413,4.413,0,0,1,.446,1.941.662.662,0,0,0,.662.663h0a.662.662,0,0,0,.662-.662,5.788,5.788,0,0,0-2.72-4.9,5.8,5.8,0,0,0-2.99-.877.662.662,0,1,0-.017,1.325,4.436,4.436,0,0,1,3.957,2.515" transform="translate(-162.718 -63.796)" fill="#00a48e"/>
    <path id="Path_17" data-name="Path 17" d="M178.689,4.926A8.727,8.727,0,0,0,170.9,0H170.9a.662.662,0,0,0-.006,1.325,7.409,7.409,0,0,1,7.347,7.4.662.662,0,0,0,.662.663h0a.662.662,0,0,0,.662-.662,8.645,8.645,0,0,0-.873-3.8" transform="translate(-162.717)" fill="#00a48e"/>
    <path id="Path_18" data-name="Path 18" d="M13.74,17.772a1.245,1.245,0,0,0-1.614-.177l-1.407.9c-.283-.119-1.239-.651-3.379-2.945s-2.61-3.288-2.705-3.573l1-1.342a1.251,1.251,0,0,0-.065-1.623L3.377,6.665a1.293,1.293,0,0,0-1.949.066l-.611.752A3.532,3.532,0,0,0,0,9.867a7.191,7.191,0,0,0,.67,2.76,20.847,20.847,0,0,0,3.862,5.548A24.072,24.072,0,0,0,8.57,21.688a8.074,8.074,0,0,0,4.28,1.623,3.324,3.324,0,0,0,2.093-.693l.789-.555a1.293,1.293,0,0,0,.2-1.939Z" transform="translate(0 -5.978)" fill="#00a48e"/>
  </g>
</svg>
