<svg xmlns="http://www.w3.org/2000/svg" width="70" height="70" viewBox="0 0 70 70">
  <g id="Children_s_play_area" data-name="Children&apos;s play area" transform="translate(-736 -149)">
    <rect id="Rectangle_3994" data-name="Rectangle 3994" width="70" height="70" transform="translate(736 149)" fill="#fff"/>
    <path id="Path_5019" data-name="Path 5019" d="M620.772,30.276h14.836V13.786H620.772Zm0-16.49,23.915,16.49h7.156V13.786H639.934m31.484,51.161h-16.1c-9.731,0-4.847-34.666-19.711-34.666m-11.414,0V64.947m9.991-34.666V64.947M620.771,30.281l-11.3,34.666m61.951,0c-9.732,0-4.847-34.666-19.711-34.666m-40.1,27.667H610.3m3.534-6.813h-1.313m3.535-6.813h-1.313m3.508-6.813h-1.312" transform="translate(130.557 151.214)" fill="none" stroke="#00a88e" stroke-linecap="round" stroke-linejoin="round" stroke-width="2"/>
  </g>
</svg>
