<svg xmlns="http://www.w3.org/2000/svg" width="70" height="70" viewBox="0 0 70 70">
  <g id="Golf_course" data-name="Golf course" transform="translate(-66.343 -106.532)">
    <rect id="Rectangle_4001" data-name="Rectangle 4001" width="70" height="70" transform="translate(66.343 106.532)" fill="#fff"/>
    <path id="Path_5068" data-name="Path 5068" d="M136.471,158.95l-.013.085-.03.121-.046.138-.071.17-.048.107-.069.108-.09.129-.125.152-.106.118-.342.31-.137.112-.181.121c-.023.015-.045.03-.067.046l-.168.127-.167.1-.509.253-.532.249-.575.216-.3.107-.274.085-.326.091-.646.166-.661.128-.68.114-.681.092-.684.055-.683.038h-.663l-.679-.019-.617-.037-1.254-.15-.589-.107-.592-.133-.009,0-.609-.133-.548-.145-1.153-.346-1.709-.59-1.113-.4-1.094-.4-.537-.2c-.02-.007-.04-.015-.06-.021l-.555-.178-.534-.178c-.031-.01-.063-.02-.095-.028l-.524-.135-.544-.156c-.027-.008-.056-.015-.084-.022l-.542-.12-.059-.012-.562-.1-.042-.007-.542-.081-.058-.007-.561-.061-.054,0-.582-.039-.049,0-.561-.02a.962.962,0,0,0-.1,0l-.581.02c-.032,0-.064,0-.095.007l-.6.06-.054.006-.581.08-.04.006-.6.1-.045.008-.6.121-.036.007-.621.141-.054.013-.6.16-.031.008-1.243.361-.041.012-1.244.4-.02.007-3.72,1.259-.6.192-.566.17-1.16.31-.561.131-.516.106-1.068.147-.487.035-.484.018-.48-.017-.176-.014-.207-.032-.014,0-.473-.069-.158-.037-.2-.06-.225-.075-.031-.01-.194-.059-.381-.16-.415-.2-.411-.239-.92-.575-1.481-1.007a.168.168,0,0,1-.022-.015l-.522-.341-.041-.025-.561-.341a.3.3,0,0,0-.033-.02l-.562-.321-.037-.021-.9-.482-.069-.035-.3-.14-.032-.015-.321-.14q-.048-.021-.1-.039l-.323-.114-.664-.254-.084-.029-1.4-.441-.047-.013-.722-.2-.037-.009-.7-.176-.7-.2-.017,0-.676-.179-.643-.175-.3-.088-.82-.274-.226-.1-.049-.02-.217-.083-.175-.082-.177-.1-.168-.1-.145-.1-.1-.074-.08-.071-.051-.051-.039-.05-.022-.1,0-.056,0-.1.007-.068.033-.131c0-.009,0-.018.006-.027l.032-.142.054-.128.015-.037.09-.236.093-.217.1-.206.453-.794.156-.259.555-.833.383-.5.451-.491,1.213-1.144,1.333-1.112,1.416-1.015,1.471-.967,1.5-.884,1.566-.813,1.59-.756L91,143.389l1.648-.6,1.68-.54,1.694-.443,1.728-.368,1.741-.31,1.734-.212,1.741-.135,1.761-.058,1.753.019,1.761.116,1.761.175,1.74.27.358.068v2.552l-.13.006-.072.006-.437.044-.07.008-.437.066c-.028,0-.056.01-.084.015l-.416.087c-.03.006-.059.014-.089.023l-.787.218a1.4,1.4,0,0,0-.164.057l-.687.279a1.432,1.432,0,0,0-.143.067l-.328.174c-.026.014-.053.029-.078.045l-.284.175c-.037.023-.074.049-.11.075l-.263.2c-.035.026-.068.054-.1.083l-.218.2c-.02.017-.038.034-.055.052l-.2.2a1.416,1.416,0,0,0-.106.119l-.175.219a1.451,1.451,0,0,0-.189.307l-.1.217-.1.194a1.424,1.424,0,0,0-.129.388l-.044.24c-.006.038-.012.077-.016.116l-.023.219a1.493,1.493,0,0,0,0,.275l.021.241a1.421,1.421,0,0,0,.023.154l.044.219a1.431,1.431,0,0,0,.1.314l.109.24c.008.017.016.033.023.05l.11.219a1.47,1.47,0,0,0,.164.257l.176.219c.018.023.036.044.055.065l.2.219a1.424,1.424,0,0,0,.107.107l.219.2a1.5,1.5,0,0,0,.167.13l.262.175.044.028.284.176.078.044.328.176c.023.012.045.023.069.034l.328.153a1.382,1.382,0,0,0,.132.054l.373.131.022.007.393.131c.048.016.1.029.144.04l.393.087.017,0,.416.087.083.015.438.066.07.008.876.087a1.232,1.232,0,0,0,.144.007h.9a1.231,1.231,0,0,0,.143-.007l.876-.087c.024,0,.048,0,.071-.008l.437-.066.084-.015.415-.087.017,0,.394-.087a1.424,1.424,0,0,0,.143-.04l.394-.131.023-.007.372-.131q.068-.024.132-.054l.328-.154c.023-.01.046-.021.069-.034l.328-.176.078-.044.284-.176.044-.028.263-.175a1.487,1.487,0,0,0,.166-.13l.219-.2a1.421,1.421,0,0,0,.107-.107l.2-.219c.019-.021.038-.043.055-.065l.175-.22a1.423,1.423,0,0,0,.164-.255l.11-.219c.008-.017.016-.034.023-.051l.11-.24a1.47,1.47,0,0,0,.1-.314l.043-.219a1.423,1.423,0,0,0,.023-.154l.023-.24a1.527,1.527,0,0,0,0-.277l-.021-.219c0-.038-.009-.077-.016-.114l-.044-.241a1.455,1.455,0,0,0-.129-.388l-.1-.2-.1-.217a1.447,1.447,0,0,0-.188-.306l-.176-.219c-.033-.041-.069-.081-.106-.119l-.2-.2-.055-.052-.219-.2c-.032-.029-.066-.056-.1-.083l-.263-.2c-.036-.026-.072-.052-.11-.075l-.284-.175c-.025-.016-.052-.031-.078-.045l-.328-.174a1.34,1.34,0,0,0-.144-.067l-.685-.279a1.461,1.461,0,0,0-.165-.057l-.787-.218c-.029-.008-.059-.016-.089-.023l-.4-.085v-2.054l.162.04,1.681.483,1.662.58,1.649.64,1.6.712,1.564.792,1.549.871,1.491.93,1.447.983,1.389,1.061,1.351,1.119,1.3,1.2,1.249,1.229,1.134,1.3.982,1.359.307.509.265.5.225.482.089.222.177.531.055.194.049.244c0,.006,0,.012,0,.019l.046.215.042.378Zm-21.466-46.308,14.463,6.819-14.463,6.808Zm0,34.407.419.116.292.12.014.006.254.1.218.116.19.117.158.117.142.128.114.114.011.015.035.076.023.047.015.03v.006l-.056.126-.052.067-.117.13-.083.075-.153.1-.224.137-.254.136-.229.107-.293.1-.312.1-.109.023Zm-2.9,2.43-.314-.032-.36-.054-.366-.077-.312-.069-.312-.1-.294-.1-.228-.107-.255-.136-.223-.137-.153-.1-.083-.075-.118-.131-.052-.066-.054-.114v-.011l.015-.037c.008-.016.016-.032.023-.048l.034-.075.126-.128.142-.129.158-.118.189-.116.219-.116.254-.1.013-.006.292-.12.66-.183.328-.069.36-.054.314-.032Zm27.262,8.911-.029-.278a.212.212,0,0,0,0-.023l-.032-.263c-.006-.044-.012-.088-.022-.132l-.116-.562c-.008-.038-.017-.076-.027-.114l-.081-.281c-.006-.021-.012-.04-.019-.061l-.2-.6c-.009-.027-.02-.054-.03-.081l-.12-.3c-.01-.025-.021-.051-.033-.075l-.256-.549c-.009-.021-.019-.04-.029-.06l-.3-.573c-.013-.026-.027-.052-.043-.077l-.36-.6c-.021-.034-.043-.068-.067-.1l-1.057-1.461c-.026-.037-.054-.07-.083-.1l-1.213-1.39c-.025-.028-.049-.054-.075-.081l-1.3-1.283-.033-.031-1.343-1.243c-.02-.018-.039-.036-.06-.053l-1.4-1.163c-.014-.012-.029-.025-.044-.036l-1.444-1.1c-.021-.016-.042-.032-.065-.047l-1.5-1.023-.049-.031-1.544-.963-.056-.033-1.6-.9-.055-.03-1.624-.822-.065-.031-1.664-.741-.066-.027-1.7-.662-.048-.018-1.724-.6-.077-.024-1.745-.5-.049-.013-.89-.222v-9.545l17.316-8.151a2.068,2.068,0,0,0,0-3.727h0l-17.266-8.141h0s0,0,0,0a2.065,2.065,0,0,0-2.951,1.875v27.088l-1.692-.263c-.026,0-.053-.007-.08-.01l-1.824-.18-.048,0-1.824-.12-.08,0-1.824-.021h-.064l-1.825.06-.065,0-1.8.141-.064.006-1.8.222c-.026,0-.052.006-.078.011l-1.806.321-.049.009-1.784.381-.065.015-1.765.462c-.026.006-.052.014-.078.023l-1.744.561-.053.018-1.705.621-.061.025-1.685.7-.065.029-1.644.782-.044.023-1.624.842-.07.039-1.564.922-.061.037-1.524,1-.047.033-1.484,1.062c-.03.021-.058.043-.085.067l-1.408,1.175c-.022.019-.043.037-.065.058l-1.284,1.21c-.025.025-.05.05-.074.076l-.528.576c-.028.031-.055.064-.082.1l-.451.588q-.029.038-.056.079l-.6.9-.037.058-.18.3-.016.026-.482.842c-.013.023-.026.048-.037.071l-.141.281c-.012.026-.024.052-.036.078l-.12.281c-.008.017-.014.034-.021.05l-.094.243-.092.222a1.469,1.469,0,0,0-.074.232l-.057.248-.057.227a1.45,1.45,0,0,0-.038.221l-.02.22c0,.027,0,.054-.006.083l-.007.222a1.577,1.577,0,0,0,0,.162l.017.216a1.47,1.47,0,0,0,.021.157l.039.206c.006.035.014.068.023.1l.053.2a1.362,1.362,0,0,0,.077.219l.08.181a1.611,1.611,0,0,0,.095.177l.1.16a1.388,1.388,0,0,0,.085.123l.141.18a1.261,1.261,0,0,0,.12.136l.14.141c.018.017.035.034.053.05l.168.152a1.522,1.522,0,0,0,.128.1l.2.14a.586.586,0,0,0,.05.034l.2.13.055.035.22.13.047.027.242.131.084.041.26.12c.029.013.057.025.087.037l.236.091.256.11a1.168,1.168,0,0,0,.112.042l.9.3.05.015.341.1.027.007.662.181.01,0,.673.177.714.2.037.009.7.176.681.19,1.338.42.641.245.035.013.292.1.255.113.251.116.849.453.526.3.524.318.491.321,1.493,1.016.047.03.962.6c.012.008.025.016.039.023l.48.281c.034.02.069.037.1.054l.5.241.069.031.482.2c.043.018.086.033.13.047l.245.075.225.075.032.01.261.08c.033.01.067.02.1.027l.26.06c.035.008.07.015.106.021l.261.04.015,0,.527.078c.036.006.071.009.107.012l.261.021.061,0,.561.02h.1l.561-.02.052,0,.562-.04c.032,0,.063-.006.095-.01l1.163-.16c.032,0,.064-.009.095-.016l.582-.12.037-.008.6-.141.044-.01,1.2-.321.043-.012.6-.18.028-.009.621-.2.021-.007,3.719-1.26,1.213-.391,1.208-.35.559-.149.577-.131.56-.113.559-.093.534-.073.527-.054.483-.016.487.017.529.037.506.054.491.072.511.091.469.105.52.148.035.009.494.128.494.165.014,0,.532.171.511.189.008,0,1.1.4.008,0,1.122.4.016,0,1.744.6.056.019,1.2.36.043.012.6.16.064.016.638.139.616.139c.02,0,.039.009.06.012l.662.121c.028,0,.056.009.084.012l1.35.162c.027,0,.056.006.084.007l.682.04.045,0,.722.02h.762l.079,0,.741-.04.039,0,.741-.06c.026,0,.052,0,.077-.008l.742-.1.044-.006.722-.12.039-.006.722-.141.084-.019.7-.181.027-.007.361-.1.044-.013.321-.1.049-.017.341-.12.028-.009.641-.241a1.108,1.108,0,0,0,.105-.044l.6-.28.036-.018.561-.281.071-.037.281-.16a1.439,1.439,0,0,0,.151-.1l.208-.156.206-.138a1.418,1.418,0,0,0,.115-.084l.22-.18.057-.05.416-.376a1.449,1.449,0,0,0,.108-.108l.18-.2c.015-.017.03-.035.044-.052l.181-.221c.023-.028.045-.057.066-.086l.14-.2c.012-.018.025-.036.036-.053l.141-.221a1.517,1.517,0,0,0,.1-.177l.1-.22c.007-.014.013-.029.019-.043l.1-.241c.013-.032.025-.065.037-.1l.081-.241c.011-.036.023-.071.031-.108l.06-.24a1.284,1.284,0,0,0,.026-.131l.04-.261a1.466,1.466,0,0,0,.017-.221v-.522c0-.05,0-.1-.007-.149" transform="translate(-5.323 4.179)" fill="#00a88f"/>
  </g>
</svg>
