<svg id="Group_13119" data-name="Group 13119" xmlns="http://www.w3.org/2000/svg" width="36.932" height="36.932" viewBox="0 0 36.932 36.932">
  <path id="Path_4883" data-name="Path 4883" d="M36.932,36.932H18.466A18.466,18.466,0,1,1,36.932,18.466Z" transform="translate(0 0)" fill="#00a88e"/>
  <path id="Path_4888" data-name="Path 4888" d="M160.875,291.9a.781.781,0,0,1-.794,0l-9.938-5.868a.221.221,0,0,0-.334.19v8.913a1.677,1.677,0,0,0,1.677,1.677h17.982a1.677,1.677,0,0,0,1.677-1.677v-8.913a.221.221,0,0,0-.334-.19Z" transform="translate(-142.012 -271.117)" fill="#fff"/>
  <path id="Path_4889" data-name="Path 4889" d="M161.016,223.529l10.113-5.972a.219.219,0,0,0,.108-.206,1.68,1.68,0,0,0-1.671-1.536H151.584a1.68,1.68,0,0,0-1.671,1.536.219.219,0,0,0,.108.206l10.113,5.972a.868.868,0,0,0,.882,0" transform="translate(-142.109 -204.583)" fill="#fff"/>
</svg>
