<svg id="Group_13140" data-name="Group 13140" xmlns="http://www.w3.org/2000/svg" xmlns:xlink="http://www.w3.org/1999/xlink" width="24.296" height="25" viewBox="0 0 24.296 25">
  <defs>
    <clipPath id="clip-path">
      <rect id="Rectangle_11" data-name="Rectangle 11" width="24.296" height="25" fill="#aaffe5"/>
    </clipPath>
  </defs>
  <g id="Group_14" data-name="Group 14" clip-path="url(#clip-path)">
    <path id="Path_16" data-name="Path 16" d="M176.884,72.282a6.365,6.365,0,0,1,.644,2.8.955.955,0,0,0,.955.956h0a.955.955,0,0,0,.955-.955,8.348,8.348,0,0,0-3.923-7.074,8.364,8.364,0,0,0-4.312-1.265.955.955,0,1,0-.025,1.91,6.4,6.4,0,0,1,5.707,3.628" transform="translate(-159.393 -62.493)" fill="#aaffe5"/>
    <path id="Path_17" data-name="Path 17" d="M182.429,7.105A12.588,12.588,0,0,0,171.2,0h-.008a.955.955,0,0,0-.008,1.911,10.686,10.686,0,0,1,10.6,10.678.955.955,0,0,0,.955.956h0a.955.955,0,0,0,.955-.955,12.469,12.469,0,0,0-1.26-5.485" transform="translate(-159.393)" fill="#aaffe5"/>
    <path id="Path_18" data-name="Path 18" d="M19.817,22.867a1.795,1.795,0,0,0-2.328-.255l-2.029,1.3c-.409-.172-1.787-.939-4.874-4.248-3.105-3.328-3.764-4.743-3.9-5.154l1.443-1.936a1.8,1.8,0,0,0-.093-2.34L4.871,6.847a1.865,1.865,0,0,0-2.81.1L1.179,8.027A5.094,5.094,0,0,0,0,11.464a10.371,10.371,0,0,0,.966,3.981,30.067,30.067,0,0,0,5.57,8,34.719,34.719,0,0,0,5.825,5.067,11.646,11.646,0,0,0,6.174,2.341,4.8,4.8,0,0,0,3.019-1l1.138-.8a1.865,1.865,0,0,0,.29-2.8Z" transform="translate(0 -5.856)" fill="#aaffe5"/>
  </g>
</svg>
