<svg id="Group_13117" data-name="Group 13117" xmlns="http://www.w3.org/2000/svg" width="36.932" height="36.932" viewBox="0 0 36.932 36.932">
  <path id="Path_4887" data-name="Path 4887" d="M2433.459,36.932h-18.466a18.466,18.466,0,0,1,0-36.932h0a18.466,18.466,0,0,1,18.466,18.466Z" transform="translate(-2396.527 0)" fill="#00a88e"/>
  <path id="Path_4890" data-name="Path 4890" d="M2558.684,148.691a11,11,0,1,0,3.223,7.78,10.931,10.931,0,0,0-3.223-7.78m.333,13.017a11.931,11.931,0,0,0-2.428-1.114,15.717,15.717,0,0,0,.538-3.451h3.413a9.6,9.6,0,0,1-1.522,4.565m-17.749-4.565h3.413a14.876,14.876,0,0,0,.566,3.44,11.945,11.945,0,0,0-2.457,1.125,9.6,9.6,0,0,1-1.523-4.565m1.556-5.959a11.98,11.98,0,0,0,2.426,1.106,15.38,15.38,0,0,0-.569,3.509h-3.413a9.6,9.6,0,0,1,1.556-4.615m8.752,1.961a18.551,18.551,0,0,0,3.658-.479,13.256,13.256,0,0,1,.547,3.134h-4.2Zm0-1.345v-4.75a7.532,7.532,0,0,1,2.253,2.468,13.116,13.116,0,0,1,.952,1.876,17.289,17.289,0,0,1-3.205.406m-1.344-4.79V151.8a17.318,17.318,0,0,1-3.254-.425,12.8,12.8,0,0,1,.914-1.863,6.651,6.651,0,0,1,2.34-2.5m0,6.134V155.8h-4.206a13.821,13.821,0,0,1,.516-3.141,18.528,18.528,0,0,0,3.69.486m-4.205,4h4.205v2.584a18.53,18.53,0,0,0-3.694.487,13.533,13.533,0,0,1-.512-3.071m4.205,3.929v4.842a7.078,7.078,0,0,1-2.3-2.487,12.951,12.951,0,0,1-.957-1.93,17.313,17.313,0,0,1,3.255-.425m1.344,4.881v-4.882a17.22,17.22,0,0,1,3.308.43,8.342,8.342,0,0,1-3.308,4.452m0-6.226v-2.584h4.206a14.265,14.265,0,0,1-.482,3.079,18.52,18.52,0,0,0-3.724-.495m5.55-3.928a14.542,14.542,0,0,0-.6-3.5,12.02,12.02,0,0,0,2.458-1.116,9.594,9.594,0,0,1,1.556,4.615Zm1.039-5.691a10.789,10.789,0,0,1-2.081.925,14.5,14.5,0,0,0-1.112-2.221,11.6,11.6,0,0,0-1.128-1.543,9.683,9.683,0,0,1,4.321,2.839m-10.354-2.79a11.048,11.048,0,0,0-1.071,1.5,13.974,13.974,0,0,0-1.064,2.19,10.841,10.841,0,0,1-2.033-.9,9.69,9.69,0,0,1,4.169-2.789m-4.21,15.469a10.79,10.79,0,0,1,2.075-.926,14.321,14.321,0,0,0,1.109,2.264,11.164,11.164,0,0,0,1.1,1.522,9.69,9.69,0,0,1-4.287-2.86m10.463,2.811a10.731,10.731,0,0,0,1.047-1.48,13.853,13.853,0,0,0,1.068-2.249,10.659,10.659,0,0,1,2.027.918,9.694,9.694,0,0,1-4.142,2.812" transform="translate(-2532.437 -137.896)" fill="#fff"/>
</svg>
