<svg xmlns="http://www.w3.org/2000/svg" width="70" height="70" viewBox="0 0 70 70">
  <g id="Mullti-purpose_sports_courts" data-name="Mullti-purpose sports courts" transform="translate(-304.9 -150.571)">
    <rect id="Rectangle_3991" data-name="Rectangle 3991" width="70" height="70" transform="translate(304.9 150.571)" fill="#fff"/>
    <g id="Group_13297" data-name="Group 13297" transform="translate(305.611 160.89)">
      <path id="Path_5049" data-name="Path 5049" d="M-3.741-2.586V-49.02a.958.958,0,0,0-.958-.958H-71.36a.958.958,0,0,0-.958.958V-2.586a.958.958,0,0,0,.958.958H-4.7a.958.958,0,0,0,.958-.958M-5.656-17.061v8.553A17.358,17.358,0,0,1-21.119-20.294a6.778,6.778,0,0,0,3.883,1.3Zm0-1.942-7.517-1.255A6.805,6.805,0,0,0-10.306-25.8a6.805,6.805,0,0,0-2.868-5.545L-5.656-32.6Zm-10.508-11.6a4.907,4.907,0,0,1,3.943,4.8A4.907,4.907,0,0,1-16.164-21ZM-18.08-21a4.907,4.907,0,0,1-3.942-4.8,4.907,4.907,0,0,1,3.942-4.8ZM-5.656-34.545l-11.579,1.932a6.778,6.778,0,0,0-3.883,1.3A17.358,17.358,0,0,1-5.656-43.1Zm-64.746,0V-43.1A17.356,17.356,0,0,1-54.94-31.312a6.768,6.768,0,0,0-3.884-1.3Zm0,1.942,7.517,1.255A6.805,6.805,0,0,0-65.753-25.8a6.805,6.805,0,0,0,2.868,5.545L-70.4-19ZM-59.895-21a4.907,4.907,0,0,1-3.943-4.8,4.907,4.907,0,0,1,3.943-4.8Zm1.916-9.61a4.907,4.907,0,0,1,3.942,4.8A4.907,4.907,0,0,1-57.979-21ZM-70.4-17.061l11.578-1.932a6.781,6.781,0,0,0,3.884-1.3A17.358,17.358,0,0,1-70.4-8.508Zm0,13.518V-6.588A19.263,19.263,0,0,0-52.121-25.8,19.262,19.262,0,0,0-70.4-45.018v-3.045h31.415v15.519a6.82,6.82,0,0,0-5.858,6.74,6.82,6.82,0,0,0,5.858,6.74V-3.543ZM-38.987-21a4.907,4.907,0,0,1-3.943-4.8,4.907,4.907,0,0,1,3.943-4.8Zm1.916-9.61a4.907,4.907,0,0,1,3.942,4.8A4.907,4.907,0,0,1-37.072-21Zm0,27.064V-19.063a6.82,6.82,0,0,0,5.858-6.74,6.82,6.82,0,0,0-5.858-6.74V-48.063H-5.656v3.045A19.262,19.262,0,0,0-23.938-25.8,19.263,19.263,0,0,0-5.656-6.588v3.045Z" transform="translate(72.318 49.978)" fill="#00a88e"/>
    </g>
  </g>
</svg>
