<svg xmlns="http://www.w3.org/2000/svg" width="35.774" height="35.935" viewBox="0 0 35.774 35.935">
  <path id="Path_4892" data-name="Path 4892" d="M3496.673,154.155a17.836,17.836,0,0,0,17.813,17.806h.007a17.807,17.807,0,0,0,8.512-2.167l9.442,2.476-2.526-9.227a17.814,17.814,0,1,0-33.248-8.888m3.008,0a14.8,14.8,0,1,1,27.346,7.865l-.353.56,1.5,5.461-5.6-1.469-.541.321a14.783,14.783,0,0,1-7.535,2.063h-.006a14.823,14.823,0,0,1-14.8-14.8m10.734-8.822a3.722,3.722,0,0,0-2.116.26c-1.039.371-1.988,2.149-2.115,3a6.1,6.1,0,0,0,.176,2.8,25.454,25.454,0,0,0,.937,2.537c1.927,4.465,6.421,7.38,6.719,7.6a8.651,8.651,0,0,0,4.6,1.817,4.992,4.992,0,0,0,3.712-1.558,1.634,1.634,0,0,0,.556-1.187c0-.3,0-.594-.016-.853s.1-.64-.763-1c-.891-.371-3.08-1.261-3.3-1.372a.82.82,0,0,0-.78-.037,3.036,3.036,0,0,0-.742.445c-.259.223-.58.467-.779.668-.222.223-.463.455-.908.2a13.405,13.405,0,0,1-3.082-2.476,12.164,12.164,0,0,1-2.209-3.579c-.223-.445-.185-.7.112-.964s1.3-1.113,1.745-1.409.371-.593.222-1-1.225-2.6-1.447-3.041-.335-.742-.52-.853" transform="translate(-3496.673 -136.336)" fill="#fff"/>
</svg>
