<svg xmlns="http://www.w3.org/2000/svg" width="70" height="70" viewBox="0 0 70 70">
  <g id="Retail_centre" data-name="Retail centre" transform="translate(-707 -537)">
    <rect id="Rectangle_4006" data-name="Rectangle 4006" width="70" height="70" transform="translate(707 537)" fill="#fff"/>
    <g id="Group_13520" data-name="Group 13520" transform="translate(857.707 408.867)">
      <path id="Path_5166" data-name="Path 5166" d="M-106.79,172.473a6.569,6.569,0,0,0,6.56,6.561,6.569,6.569,0,0,0,6.56-6.561,1,1,0,0,0-1-1,1,1,0,0,0-1,1,4.565,4.565,0,0,1-4.56,4.561,4.566,4.566,0,0,1-4.56-4.561,1,1,0,0,0-1-1A1,1,0,0,0-106.79,172.473Z" fill="#00a88f"/>
      <path id="Path_5167" data-name="Path 5167" d="M-88.631,165.73a1,1,0,0,0-.99-.89h-14.35l-1.79-16.2a1.006,1.006,0,0,0-1-.89h-5.329a11.626,11.626,0,0,0-11.565-10.617A11.626,11.626,0,0,0-135.22,147.75h-5.331a1.006,1.006,0,0,0-1,.89l-3.74,33.91a1.231,1.231,0,0,0-.02.2l-1.39,12.56a.99.99,0,0,0,.25.77,1.011,1.011,0,0,0,.74.34h59.35a1.016,1.016,0,0,0,.75-.34.99.99,0,0,0,.25-.77Zm-15.12,1.11h13.23l2.16,19.55H-112.3l.29-2.64.22-2,1.65-14.91h6.39Zm-19.9-27.707a9.629,9.629,0,0,1,9.563,8.617h-19.126A9.629,9.629,0,0,1-123.655,139.133Zm-16.006,10.617h32.01l1.67,15.09h-5.06a1,1,0,0,0-.99.89l-1.77,16.02h-29.39Zm-3.75,34h29.39l-.38,3.44a1.231,1.231,0,0,0-.02.2l-.78,7.03h-29.39Zm42.7,10.67h-12.48l.67-6.03h24.38l.67,6.03Z" fill="#00a88f"/>
    </g>
  </g>
</svg>
