<svg id="Group_13131" data-name="Group 13131" xmlns="http://www.w3.org/2000/svg" xmlns:xlink="http://www.w3.org/1999/xlink" width="18.332" height="18.333" viewBox="0 0 18.332 18.333">
  <defs>
    <clipPath id="clip-path">
      <path id="Path_19" data-name="Path 19" d="M10.966,14.3a15.826,15.826,0,0,1-1.571-.58A12.282,12.282,0,0,1,4.688,9.563a5.357,5.357,0,0,1-1.125-2.85,3.089,3.089,0,0,1,.964-2.3,1.013,1.013,0,0,1,.735-.345c.184,0,.368,0,.528.01h.062c.16,0,.361,0,.558.472.23.552.781,1.907.85,2.045a.507.507,0,0,1,.023.483,1.879,1.879,0,0,1-.276.46c-.138.161-.289.359-.413.483s-.282.286-.121.562a8.308,8.308,0,0,0,1.533,1.908,7.532,7.532,0,0,0,2.216,1.367c.276.138.436.115.6-.069s.689-.8.873-1.08.367-.23.62-.138,1.607.758,1.883.9.459.207.528.322a2.3,2.3,0,0,1-.161,1.31,2.837,2.837,0,0,1-1.86,1.31,4.517,4.517,0,0,1-.669.053,3.5,3.5,0,0,1-1.067-.162M9.17,0A9.168,9.168,0,0,0,1.4,14.039l.218.347L.693,17.767l3.469-.91.335.2a9.155,9.155,0,0,0,4.665,1.277h0A9.167,9.167,0,0,0,9.17,0Z" transform="translate(0)" fill="#00a48e"/>
    </clipPath>
  </defs>
  <g id="Group_16" data-name="Group 16" transform="translate(0)" clip-path="url(#clip-path)">
    <rect id="Rectangle_12" data-name="Rectangle 12" width="18.334" height="18.333" transform="translate(-0.001 0)" fill="#00a48e"/>
  </g>
</svg>
