<svg id="Group_13116" data-name="Group 13116" xmlns="http://www.w3.org/2000/svg" width="36.932" height="36.932" viewBox="0 0 36.932 36.932">
  <path id="Path_4891" data-name="Path 4891" d="M3396.292,36.932h-18.466a18.466,18.466,0,1,1,18.466-18.466Z" transform="translate(-3359.36 0)" fill="#00a88e"/>
  <path id="Path_4892" data-name="Path 4892" d="M3496.673,147.612a11.287,11.287,0,0,0,11.272,11.268h0a11.268,11.268,0,0,0,5.386-1.371l5.975,1.567-1.6-5.839a11.272,11.272,0,1,0-21.039-5.624m1.9,0a9.368,9.368,0,1,1,17.3,4.977l-.223.354.946,3.456-3.545-.93-.343.2a9.355,9.355,0,0,1-4.768,1.306h0a9.38,9.38,0,0,1-9.368-9.366m6.792-5.582a2.356,2.356,0,0,0-1.339.164,2.9,2.9,0,0,0-1.339,1.9,3.86,3.86,0,0,0,.112,1.774,16,16,0,0,0,.593,1.606,12.549,12.549,0,0,0,4.251,4.811,5.474,5.474,0,0,0,2.912,1.15,3.158,3.158,0,0,0,2.349-.986,1.034,1.034,0,0,0,.352-.751c0-.188,0-.376-.01-.54s.066-.405-.483-.634-1.949-.8-2.09-.868a.518.518,0,0,0-.493-.024,1.916,1.916,0,0,0-.47.282c-.164.141-.367.3-.493.422s-.293.288-.574.124a8.482,8.482,0,0,1-1.95-1.567,7.691,7.691,0,0,1-1.4-2.265c-.141-.282-.117-.446.071-.61s.822-.7,1.1-.892.235-.376.14-.634-.775-1.643-.916-1.924-.212-.469-.329-.54" transform="translate(-3489.526 -129.24)" fill="#fff"/>
</svg>
