<svg xmlns="http://www.w3.org/2000/svg" width="70" height="70" viewBox="0 0 70 70">
  <g id="BBQ_area" data-name="BBQ area" transform="translate(-597 -349)">
    <rect id="Rectangle_3998" data-name="Rectangle 3998" width="70" height="70" transform="translate(597 349)" fill="#fff"/>
    <g id="_x36_" transform="translate(587.236 343.367)">
      <path id="Path_5113" data-name="Path 5113" d="M34.655,24.427a1.178,1.178,0,0,1-.822-.329,1.274,1.274,0,0,1-.164-1.726c.247-.247,1.973-2.548.164-4.11-3.041-2.548-1.4-6.082-.164-7.562a1.226,1.226,0,0,1,1.89,1.562h0c-.247.247-1.973,2.548-.164,4.11,3.041,2.548,1.4,6.082.164,7.562A.944.944,0,0,1,34.655,24.427Zm19.068-.493c1.233-1.479,2.877-5.014-.164-7.562-1.89-1.562-.082-3.863.164-4.11h0a1.274,1.274,0,0,0-.164-1.726,1.2,1.2,0,0,0-1.726.164c-1.233,1.479-2.877,5.014.164,7.562,1.89,1.562.082,3.863-.164,4.11A1.2,1.2,0,0,0,52,24.1a1.46,1.46,0,0,0,.822.329A1.136,1.136,0,0,0,53.723,23.934ZM42.874,46.948a1.329,1.329,0,0,0-1.151-1.315c-6.082-.329-6.657-5.589-6.657-5.836a1.236,1.236,0,1,0-2.466.164c.164,2.63,2.3,7.726,8.959,8.137h.082A1.194,1.194,0,0,0,42.874,46.948Zm26.055-13.4A1.264,1.264,0,0,1,67.7,34.784h-2.3v.082A20.446,20.446,0,0,1,55.038,52.7l3.041,8.384A5.055,5.055,0,0,1,59.23,61a7.315,7.315,0,1,1,0,14.63A7.205,7.205,0,0,1,54.052,73.5h0a7.278,7.278,0,0,1-1.973-3.863h-21.7L29.148,73A1.236,1.236,0,0,1,28,73.824a.741.741,0,0,1-.411-.082,1.188,1.188,0,0,1-.74-1.562L34,52.537a20.409,20.409,0,0,1-9.863-17.589v-.082h-2.3a1.233,1.233,0,1,1,0-2.466H67.778A1.078,1.078,0,0,1,68.928,33.551Zm-9.7,29.918a4.3,4.3,0,0,0-1.479.247,4.767,4.767,0,0,0-3.288,4.438v.329a4.291,4.291,0,0,0,1.4,3.205,4.839,4.839,0,1,0,3.37-8.219Zm-3.452-1.562-2.959-8.055h0c-.493.164-.986.411-1.479.575a21.275,21.275,0,0,1-13.315,0,10.977,10.977,0,0,1-1.479-.575c-.082,0-.164-.082-.247-.082a.287.287,0,0,1-.164-.082L31.2,67.085H52a1.934,1.934,0,0,1,.164-.658c0-.082,0-.082.082-.164.082-.247.164-.575.247-.822a.08.08,0,0,1,.082-.082,3.331,3.331,0,0,1,.411-.74v-.082l.493-.74.082-.082a4.116,4.116,0,0,1,.575-.658l.082-.082c.247-.164.411-.411.658-.575h.082a7.228,7.228,0,0,1,.822-.493Zm7.151-27.041H26.6v.082a18.206,18.206,0,0,0,9.534,16.027h0a7.286,7.286,0,0,0,1.4.658c.493.247.986.411,1.4.575a17.757,17.757,0,0,0,11.671,0c.822-.329,1.644-.658,2.384-.986a18.432,18.432,0,0,0,9.945-16.356Z" fill="#00a88f"/>
    </g>
  </g>
</svg>
