<svg xmlns="http://www.w3.org/2000/svg" width="70" height="70" viewBox="0 0 70 70">
  <g id="Community_centre" data-name="Community centre" transform="translate(-307 -679.562)">
    <rect id="Rectangle_4005" data-name="Rectangle 4005" width="70" height="70" transform="translate(307 679.562)" fill="#fff"/>
    <g id="buildings-svgrepo-com" transform="translate(306.169 685.197)">
      <g id="Group_13470" data-name="Group 13470" transform="translate(4.687)">
        <g id="Group_13469" data-name="Group 13469">
          <path id="Path_5089" data-name="Path 5089" d="M64.9,62.288V13.5H61.213L52.908,4.153H47.251V0H6.763V62.288H4.687v2.076H66.975V62.288ZM51.976,6.229,58.434,13.5H47.251V10.381H45.174V13.5H33.991l6.46-7.267ZM33.755,9.343V7.267h2.994L34.9,9.343ZM27.526,62.288H16.107V46.716h11.42V62.288Zm0-28.029H23.373V32.182h4.153Zm0-8.305H23.373V23.877h4.153Zm0-8.305H23.373V15.572h4.153ZM21.3,13.5v6.229h6.229V21.8H21.3V28.03h6.229v2.076H21.3v6.229h6.229v4.153H10.916v2.076h16.61V44.64H10.916v2.076H14.03V62.288H8.84V2.076H45.174V4.153H39.518l-.923,1.038H31.679V11.42h1.38L31.213,13.5H21.3Zm16.61,48.792H33.755V56.059a2.076,2.076,0,0,1,4.153,0Zm10.381,0H44.136V56.059a2.076,2.076,0,0,1,4.153,0Zm10.381,0H54.518V56.059a2.076,2.076,0,0,1,4.153,0Zm4.153,0H60.746V56.059a4.153,4.153,0,1,0-8.305,0v6.229H50.365V56.059a4.153,4.153,0,0,0-8.305,0v6.229H39.984V56.059a4.153,4.153,0,0,0-8.305,0v6.229H29.6V15.572h33.22Z" transform="translate(-4.687)" fill="#00a88f"/>
          <path id="Path_5090" data-name="Path 5090" d="M134.868,192.188h-8.305v6.229h8.305Zm-2.076,4.153h-4.153v-2.076h4.153Z" transform="translate(-99.571 -149.624)" fill="#00a88f"/>
          <path id="Path_5091" data-name="Path 5091" d="M181.743,192.188h-8.305v6.229h8.305Zm-2.076,4.153h-4.153v-2.076h4.153Z" transform="translate(-136.065 -149.624)" fill="#00a88f"/>
          <path id="Path_5092" data-name="Path 5092" d="M228.618,192.188h-8.305v6.229h8.305Zm-2.076,4.153h-4.153v-2.076h4.153Z" transform="translate(-172.559 -149.624)" fill="#00a88f"/>
          <path id="Path_5093" data-name="Path 5093" d="M134.868,154.688h-8.305v6.229h8.305Zm-2.076,4.153h-4.153v-2.076h4.153Z" transform="translate(-99.571 -120.429)" fill="#00a88f"/>
          <path id="Path_5094" data-name="Path 5094" d="M181.743,154.688h-8.305v6.229h8.305Zm-2.076,4.153h-4.153v-2.076h4.153Z" transform="translate(-136.065 -120.429)" fill="#00a88f"/>
          <path id="Path_5095" data-name="Path 5095" d="M228.618,154.688h-8.305v6.229h8.305Zm-2.076,4.153h-4.153v-2.076h4.153Z" transform="translate(-172.559 -120.429)" fill="#00a88f"/>
          <path id="Path_5096" data-name="Path 5096" d="M134.868,117.188h-8.305v6.229h8.305Zm-2.076,4.153h-4.153v-2.076h4.153Z" transform="translate(-99.571 -91.235)" fill="#00a88f"/>
          <path id="Path_5097" data-name="Path 5097" d="M181.743,117.188h-8.305v6.229h8.305Zm-2.076,4.153h-4.153v-2.076h4.153Z" transform="translate(-136.065 -91.235)" fill="#00a88f"/>
          <path id="Path_5098" data-name="Path 5098" d="M228.618,117.188h-8.305v6.229h8.305Zm-2.076,4.153h-4.153v-2.076h4.153Z" transform="translate(-172.559 -91.235)" fill="#00a88f"/>
          <path id="Path_5099" data-name="Path 5099" d="M134.868,79.688h-8.305v6.229h8.305Zm-2.076,4.153h-4.153V81.764h4.153Z" transform="translate(-99.571 -62.04)" fill="#00a88f"/>
          <path id="Path_5100" data-name="Path 5100" d="M181.743,79.688h-8.305v6.229h8.305Zm-2.076,4.153h-4.153V81.764h4.153Z" transform="translate(-136.065 -62.04)" fill="#00a88f"/>
          <path id="Path_5101" data-name="Path 5101" d="M228.618,79.688h-8.305v6.229h8.305Zm-2.076,4.153h-4.153V81.764h4.153Z" transform="translate(-172.559 -62.04)" fill="#00a88f"/>
          <path id="Path_5102" data-name="Path 5102" d="M32.812,142.167h8.305v-6.229H32.812Zm2.076-4.153h4.153v2.076H34.888Z" transform="translate(-26.583 -105.832)" fill="#00a88f"/>
          <path id="Path_5103" data-name="Path 5103" d="M32.812,104.667h8.305V98.438H32.812Zm2.076-4.153h4.153v2.076H34.888Z" transform="translate(-26.583 -76.637)" fill="#00a88f"/>
          <path id="Path_5104" data-name="Path 5104" d="M32.812,67.167h8.305V60.938H32.812Zm2.076-4.153h4.153v2.076H34.888Z" transform="translate(-26.583 -47.442)" fill="#00a88f"/>
          <path id="Path_5105" data-name="Path 5105" d="M32.812,29.667h8.305V23.438H32.812Zm2.076-4.153h4.153v2.076H34.888Z" transform="translate(-26.583 -18.247)" fill="#00a88f"/>
          <path id="Path_5106" data-name="Path 5106" d="M79.687,29.667h8.305V23.438H79.687Zm2.076-4.153h4.153v2.076H81.763Z" transform="translate(-63.077 -18.247)" fill="#00a88f"/>
        </g>
      </g>
    </g>
  </g>
</svg>
