<svg xmlns="http://www.w3.org/2000/svg" width="70" height="70" viewBox="0 0 70 70">
  <g id="Covered_parking" data-name="Covered parking" transform="translate(-302 -349)">
    <rect id="Rectangle_3996" data-name="Rectangle 3996" width="70" height="70" transform="translate(302 349)" fill="#fff"/>
    <g id="Group_13473" data-name="Group 13473" transform="translate(7.728 18.951)">
      <g id="Group_13294" data-name="Group 13294" transform="translate(295.299 356.058)">
        <path id="Path_5046" data-name="Path 5046" d="M-17.227-10.768h-4.9V-49.184a3.362,3.362,0,0,0-3.358-3.359H-37.024a1.108,1.108,0,0,0,0,2.216h11.538a1.146,1.146,0,0,1,1.143,1.143v38.416h-4.848v-27.7a3.218,3.218,0,0,0-3.359-3.057H-67.634a3.218,3.218,0,0,0-3.358,3.057v27.7H-75.84V-49.184A1.14,1.14,0,0,1-74.7-50.327h11.972a1.108,1.108,0,0,0,0-2.216H-74.7a3.363,3.363,0,0,0-3.359,3.359v38.416h-4.9A1.108,1.108,0,0,0-84.064-9.66a1.108,1.108,0,0,0,1.108,1.108h65.729A1.108,1.108,0,0,0-16.12-9.66a1.108,1.108,0,0,0-1.108-1.108m-14.179,0H-68.777V-15.35h37.371Zm0-6.8H-68.777v-3.89h37.371Zm0-6.106H-68.777v-3.89h37.371Zm0-6.105H-68.777v-3.89h37.371Zm0-6.106H-68.777V-38.47c0-.46.523-.841,1.143-.841H-32.55c.621,0,1.143.381,1.143.841Z" transform="translate(84.064 52.543)" fill="#00a88e"/>
      </g>
      <g id="Group_13295" data-name="Group 13295" transform="translate(320.795 348.969)">
        <path id="Path_5047" data-name="Path 5047" d="M-2.113,0a8.207,8.207,0,0,0-8.2,8.2,8.207,8.207,0,0,0,8.2,8.2,8.206,8.206,0,0,0,8.2-8.2A8.206,8.206,0,0,0-2.113,0m0,14.179A5.992,5.992,0,0,1-8.095,8.2,5.992,5.992,0,0,1-2.113,2.215,5.991,5.991,0,0,1,3.869,8.2a5.991,5.991,0,0,1-5.982,5.982" transform="translate(10.31)" fill="#00a88e"/>
      </g>
      <g id="Group_13296" data-name="Group 13296" transform="translate(326.378 352.514)">
        <path id="Path_5048" data-name="Path 5048" d="M-.847,0h-2.18A1.108,1.108,0,0,0-4.135,1.108V8.2a1.108,1.108,0,0,0,2.215,0V6.815H-.847A3.4,3.4,0,0,0,2.538,3.385,3.385,3.385,0,0,0-.847,0m0,4.6H-1.92V2.216H-.847A1.178,1.178,0,0,1,.322,3.429,1.174,1.174,0,0,1-.847,4.6" transform="translate(4.135)" fill="#00a88e"/>
      </g>
    </g>
  </g>
</svg>
