<svg id="Group_13334" data-name="Group 13334" xmlns="http://www.w3.org/2000/svg" xmlns:xlink="http://www.w3.org/1999/xlink" width="14.666" height="20.667" viewBox="0 0 14.666 20.667">
  <defs>
    <clipPath id="clip-path">
      <rect id="Rectangle_3906" data-name="Rectangle 3906" width="14.666" height="20.667" fill="#00a48e"/>
    </clipPath>
  </defs>
  <g id="Group_13333" data-name="Group 13333" clip-path="url(#clip-path)">
    <path id="Path_5057" data-name="Path 5057" d="M14.66,12.878c-.028.773-.185,5.1-3.742,7.168a7.214,7.214,0,0,1-1.173.544,3.58,3.58,0,0,0,.991-2.771,4.453,4.453,0,0,0-1.264-2.652,4.234,4.234,0,0,1-.643-.685c-.012-.017-.12-.161-.214-.312A4.105,4.105,0,0,1,8.1,12.7a5.266,5.266,0,0,1-.021-1.621,6.477,6.477,0,0,0-1.038,1.037,6.674,6.674,0,0,0-.836,1.372,6.883,6.883,0,0,0-.586,2.192,1.916,1.916,0,0,1-.5-.614,2.022,2.022,0,0,1-.151-1.377,5.456,5.456,0,0,0-.789,1.031,5.231,5.231,0,0,0-.764,2.8A4.587,4.587,0,0,0,4.7,20.667a6.786,6.786,0,0,1-2.685-1.625A7.162,7.162,0,0,1,.022,13.486a8.9,8.9,0,0,1,2.529-5.3,8.514,8.514,0,0,0,1.287-1.37c.025-.033.24-.321.427-.625A8.2,8.2,0,0,0,5.287,3.242,10.523,10.523,0,0,0,5.329,0,12.959,12.959,0,0,1,7.4,2.075,13.308,13.308,0,0,1,9.077,4.819,13.757,13.757,0,0,1,10.249,9.2a3.841,3.841,0,0,0,1-1.227,4.048,4.048,0,0,0,.3-2.755,10.9,10.9,0,0,1,1.579,2.063,10.465,10.465,0,0,1,1.528,5.595" transform="translate(0)" fill="#00a48e"/>
  </g>
</svg>
