<svg id="Group_13118" data-name="Group 13118" xmlns="http://www.w3.org/2000/svg" width="36.932" height="36.932" viewBox="0 0 36.932 36.932">
  <path id="Path_4882" data-name="Path 4882" d="M1259.3,36.932H1240.83A18.466,18.466,0,1,1,1259.3,18.466Z" transform="translate(-1222.364 0)" fill="#00a88e"/>
  <path id="Path_4884" data-name="Path 4884" d="M1562.057,241.318a5.2,5.2,0,0,1,.526,2.288.781.781,0,0,0,.78.781h0a.781.781,0,0,0,.781-.78,6.822,6.822,0,0,0-3.206-5.782,6.837,6.837,0,0,0-3.525-1.034.781.781,0,0,0-.021,1.561,5.228,5.228,0,0,1,4.664,2.965" transform="translate(-1539.224 -224.466)" fill="#fff"/>
  <path id="Path_4885" data-name="Path 4885" d="M1566.588,175.855a10.288,10.288,0,0,0-9.179-5.807h-.007a.781.781,0,0,0-.007,1.561,8.734,8.734,0,0,1,8.661,8.727.781.781,0,0,0,.78.781h0a.781.781,0,0,0,.781-.78,10.191,10.191,0,0,0-1.03-4.483" transform="translate(-1539.223 -161.197)" fill="#fff"/>
  <path id="Path_4886" data-name="Path 4886" d="M1402.584,189.88a1.467,1.467,0,0,0-1.9-.209l-1.658,1.066c-.334-.14-1.46-.767-3.983-3.472-2.538-2.72-3.076-3.876-3.188-4.212l1.179-1.582a1.475,1.475,0,0,0-.076-1.913l-2.586-2.772a1.524,1.524,0,0,0-2.3.078l-.72.886a4.162,4.162,0,0,0-.963,2.81,8.472,8.472,0,0,0,.79,3.254,24.566,24.566,0,0,0,4.552,6.54,28.378,28.378,0,0,0,4.76,4.141,9.518,9.518,0,0,0,5.046,1.914,3.919,3.919,0,0,0,2.467-.817l.93-.655a1.524,1.524,0,0,0,.237-2.286Z" transform="translate(-1377.85 -167.125)" fill="#fff"/>
</svg>
