<svg xmlns="http://www.w3.org/2000/svg" width="51" height="43" viewBox="0 0 51 43">
  <g id="Group_13462" data-name="Group 13462" transform="translate(-176 -307)">
    <rect id="Rectangle_3903" data-name="Rectangle 3903" width="51" height="43" rx="21.5" transform="translate(176 307)" fill="#00a38f"/>
    <g id="Group_13329" data-name="Group 13329" transform="translate(-1497.036 -892)">
      <path id="Path_5053" data-name="Path 5053" d="M353.267,282.982a1.044,1.044,0,0,0-1.068-1.018h-1.883a1.044,1.044,0,0,0-1.068,1.018v5.282l4.02-2.846Z" transform="translate(1339.176 925.853)" fill="#fff"/>
      <path id="Path_5054" data-name="Path 5054" d="M267.271,297.683l-12.421-8.795a1.753,1.753,0,0,0-1.92,0l-4.52,3.2-4.02,2.846-3.881,2.748a1.41,1.41,0,0,0-.315,2.035l.539.691a1.577,1.577,0,0,0,2.136.3l1.678-1.188V310.2a1.339,1.339,0,0,0,1.366,1.3h15.954a1.339,1.339,0,0,0,1.366-1.3V299.521l1.678,1.188a1.577,1.577,0,0,0,2.136-.3l.539-.691a1.41,1.41,0,0,0-.315-2.035m-7.569,3.838c-.866,2.487-3.194,4.156-5.811,6.075h0c-2.618-1.919-4.946-3.588-5.811-6.075-1.848-5.307,3.956-6.418,5.812-3.642,1.857-2.776,7.66-1.665,5.813,3.642" transform="translate(1444.646 919.452)" fill="#fff"/>
    </g>
  </g>
</svg>
