<svg xmlns="http://www.w3.org/2000/svg" width="70" height="70" viewBox="0 0 70 70">
  <g id="Jogging_and_cycling_trail" data-name="Jogging and cycling trail" transform="translate(-455 -352)">
    <rect id="Rectangle_3997" data-name="Rectangle 3997" width="70" height="70" transform="translate(455 352)" fill="#fff"/>
    <g id="Group_13484" data-name="Group 13484" transform="translate(398.002 261.408)">
      <g id="Group_13476" data-name="Group 13476" transform="translate(59.104 120.556)">
        <path id="Path_5114" data-name="Path 5114" d="M62.627,213.722l2.979-5.455a2.372,2.372,0,0,1,4.007,0l2.987,5.469c.758,1.328,1.788,3.871.183,5.976-.59.777-1.81,1.151-4.107,1.234v-6.4a1.077,1.077,0,0,0-2.134,0v6.4c-2.3-.083-3.517-.457-4.108-1.234-1.605-2.107-.574-4.648.191-5.99m3.917,9.085v4.962a1.077,1.077,0,0,0,2.134,0v-4.962c2.407-.075,4.67-.471,5.885-2.066,1.629-2.137,1.611-4.919-.042-7.817l-2.979-5.454a4.653,4.653,0,0,0-7.861,0l-2.971,5.439c-1.662,2.912-1.679,5.694-.051,7.831,1.216,1.6,3.478,1.992,5.886,2.067" transform="translate(-59.449 -205.306)" fill="#00a88f"/>
      </g>
      <g id="Group_13477" data-name="Group 13477" transform="translate(59.035 120.487)">
        <path id="Path_5115" data-name="Path 5115" d="M67.265,228.424a1.075,1.075,0,0,1-1.136-1v-4.9c-2.059-.069-4.566-.378-5.871-2.093-1.647-2.161-1.631-4.969.045-7.907l2.97-5.438a4.721,4.721,0,0,1,7.982,0l2.979,5.454c1.67,2.928,1.683,5.731.036,7.892-1.3,1.714-3.811,2.023-5.87,2.092v4.9A1.075,1.075,0,0,1,67.265,228.424Zm0-23.391a4.338,4.338,0,0,0-3.87,2.127L60.424,212.6c-1.648,2.888-1.668,5.642-.056,7.756,1.285,1.687,3.792,1.977,5.833,2.04l.067,0v5.029a1.009,1.009,0,0,0,2,0V222.4l.067,0c2.041-.064,4.548-.353,5.832-2.039,1.611-2.114,1.595-4.863-.047-7.741l-2.98-5.455A4.338,4.338,0,0,0,67.265,205.033Zm1,15.642V214.2a1.009,1.009,0,0,0-2,0v6.471l-.071,0c-2.308-.083-3.552-.46-4.16-1.261-1.628-2.136-.583-4.717.186-6.066l2.979-5.454a2.441,2.441,0,0,1,4.128,0l2.987,5.469c.765,1.341,1.807,3.913.177,6.051-.608.8-1.852,1.178-4.159,1.261Zm-1-13.783a2.149,2.149,0,0,0-1.943,1.066l-2.98,5.456c-.751,1.319-1.776,3.841-.2,5.914.574.756,1.768,1.117,3.984,1.2V214.2a1.145,1.145,0,0,1,2.272,0v6.327c2.215-.086,3.409-.448,3.983-1.2,1.582-2.075.561-4.587-.188-5.9l-2.988-5.47A2.15,2.15,0,0,0,67.265,206.892Z" transform="translate(-59.035 -204.895)" fill="#00a88f"/>
      </g>
      <g id="Group_13478" data-name="Group 13478" transform="translate(72.608 110.058)">
        <path id="Path_5116" data-name="Path 5116" d="M143.065,151.185l2.98-5.455a2.372,2.372,0,0,1,4.007,0l2.986,5.469c.758,1.328,1.788,3.87.184,5.976-.591.776-1.811,1.151-4.108,1.234v-6.4a1.077,1.077,0,0,0-2.134,0v6.4c-2.3-.083-3.516-.457-4.108-1.234-1.6-2.106-.574-4.648.191-5.99m3.917,9.085v4.962a1.077,1.077,0,0,0,2.134,0V160.27c2.408-.075,4.67-.471,5.886-2.067,1.628-2.137,1.61-4.918-.043-7.817l-2.979-5.454a4.654,4.654,0,0,0-7.861,0l-2.971,5.44c-1.661,2.912-1.679,5.694-.051,7.83,1.216,1.6,3.478,1.992,5.886,2.067" transform="translate(-139.888 -142.77)" fill="#00a88f"/>
      </g>
      <g id="Group_13479" data-name="Group 13479" transform="translate(72.538 109.989)">
        <path id="Path_5117" data-name="Path 5117" d="M147.7,165.887a1.074,1.074,0,0,1-1.135-1v-4.9c-2.059-.069-4.566-.377-5.871-2.092-1.646-2.16-1.63-4.968.045-7.906l2.971-5.439a4.722,4.722,0,0,1,7.982,0l2.979,5.454c1.67,2.927,1.683,5.73.037,7.891-1.306,1.714-3.812,2.023-5.871,2.092v4.9A1.075,1.075,0,0,1,147.7,165.887Zm0-23.39a4.338,4.338,0,0,0-3.87,2.127l-2.972,5.44c-1.647,2.888-1.667,5.642-.056,7.755,1.285,1.688,3.792,1.977,5.833,2.04l.067,0v5.029a1.009,1.009,0,0,0,2,0v-5.029l.067,0c2.041-.063,4.548-.353,5.833-2.039,1.61-2.114,1.593-4.863-.048-7.741l-2.979-5.455A4.338,4.338,0,0,0,147.7,142.5Zm1,15.641v-6.471a1.009,1.009,0,0,0-2,0v6.471l-.071,0c-2.307-.083-3.551-.46-4.16-1.261-1.628-2.136-.583-4.717.186-6.065l2.98-5.454a2.441,2.441,0,0,1,4.128,0l2.987,5.469c.765,1.342,1.807,3.913.178,6.051-.61.8-1.854,1.178-4.16,1.261Zm-1-13.783a2.149,2.149,0,0,0-1.943,1.066l-2.981,5.456c-.751,1.319-1.776,3.84-.2,5.914.576.756,1.769,1.117,3.984,1.2v-6.327a1.145,1.145,0,0,1,2.272,0V158c2.214-.086,3.408-.448,3.984-1.2,1.581-2.075.56-4.587-.189-5.9l-2.987-5.47A2.15,2.15,0,0,0,147.7,144.355Z" transform="translate(-139.473 -142.359)" fill="#00a88f"/>
      </g>
      <g id="Group_13480" data-name="Group 13480" transform="translate(106.299 103.527)">
        <path id="Path_5118" data-name="Path 5118" d="M343.541,110.941l2.418-4.422a1.711,1.711,0,0,1,2.89,0l2.425,4.436c.6,1.044,1.408,3.037.162,4.671-.424.555-1.311.835-2.965.913v-5a1.077,1.077,0,0,0-2.134,0v5c-1.653-.078-2.542-.357-2.965-.913-1.246-1.633-.433-3.627.169-4.685m2.8,7.458v3.855a1.077,1.077,0,0,0,2.134,0V118.4c1.936-.078,3.741-.433,4.743-1.746,1.362-1.788,1.352-4.1-.021-6.51l-2.418-4.422a3.993,3.993,0,0,0-6.743,0l-2.41,4.408c-1.38,2.42-1.391,4.737-.028,6.524,1,1.313,2.807,1.668,4.742,1.746" transform="translate(-340.579 -103.869)" fill="#00a88f"/>
      </g>
      <g id="Group_13481" data-name="Group 13481" transform="translate(106.23 103.458)">
        <path id="Path_5119" data-name="Path 5119" d="M347.058,122.91a1.074,1.074,0,0,1-1.135-1v-3.789c-1.642-.072-3.642-.346-4.728-1.771-1.38-1.809-1.372-4.153.023-6.6l2.41-4.407a4.062,4.062,0,0,1,6.863,0l2.418,4.421c1.39,2.434,1.4,4.773.015,6.585-1.087,1.425-3.087,1.7-4.729,1.771v3.789A1.075,1.075,0,0,1,347.058,122.91Zm0-19.314a3.709,3.709,0,0,0-3.31,1.817l-2.41,4.408c-1.367,2.4-1.378,4.686-.034,6.449,1.066,1.4,3.067,1.654,4.69,1.719l.066,0v3.921a1.009,1.009,0,0,0,2,0v-3.921l.066,0c1.624-.066,3.624-.321,4.691-1.719,1.344-1.765,1.335-4.049-.026-6.434l-2.418-4.423A3.709,3.709,0,0,0,347.058,103.6Zm-1,12.673-.072,0c-1.672-.078-2.574-.36-3.016-.94-1.269-1.663-.442-3.7.164-4.76l2.418-4.421a1.78,1.78,0,0,1,3.011,0l2.425,4.435c.6,1.057,1.426,3.081.157,4.746-.443.58-1.345.862-3.017.94l-.072,0v-5.075a1.009,1.009,0,0,0-2,0Zm1-6.073a1.075,1.075,0,0,1,1.136,1v4.931c1.581-.081,2.432-.346,2.841-.882,1.222-1.6.419-3.567-.167-4.595l-2.425-4.436a1.642,1.642,0,0,0-2.768,0l-2.418,4.423c-.589,1.034-1.4,3.008-.174,4.609.4.529,1.28.8,2.841.882v-4.931A1.074,1.074,0,0,1,347.058,110.2Z" transform="translate(-340.165 -103.458)" fill="#00a88f"/>
      </g>
      <g id="Group_13482" data-name="Group 13482" transform="translate(59.111 104.843)">
        <path id="Path_5120" data-name="Path 5120" d="M92.4,125c-1.449-1.906-.514-4.218.182-5.439l2.734-5.021a2.082,2.082,0,0,1,3.523,0l2.743,5.035c.688,1.208,1.624,3.519.174,5.425-.518.683-1.595,1.017-3.612,1.1v-5.811a1.077,1.077,0,0,0-2.134,0V126.1c-2.017-.081-3.094-.415-3.612-1.1m32.852,5a1.034,1.034,0,0,0-1.053-.786,84.977,84.977,0,0,0-26.672,4.087.933.933,0,0,0,.618-.844v-4.495c2.2-.077,4.266-.456,5.389-1.934,1.513-1.991,1.5-4.578-.033-7.27l-2.735-5.021a4.36,4.36,0,0,0-7.376,0l-2.727,5.007c-1.539,2.707-1.554,5.294-.041,7.285,1.122,1.478,3.186,1.857,5.389,1.934v4.495a1.006,1.006,0,0,0,1.066.931,1.194,1.194,0,0,0,.294-.037,71.427,71.427,0,0,0-23.34,12.84c-10.083,8.393-14.285,16.673-14.459,17.022a.89.89,0,0,0,.551,1.226,1.132,1.132,0,0,0,1.4-.48c.041-.083,4.242-8.337,14.041-16.473,8.391-6.966,22.617-15.176,43.779-16.282-6.688,3.505-18.766,12.447-21.941,32.253a.961.961,0,0,0,.909,1.051,1.2,1.2,0,0,0,.149.009,1.03,1.03,0,0,0,1.055-.8c4.241-26.458,24.8-32.624,25.007-32.682a.93.93,0,0,0,.725-1.032" transform="translate(-59.487 -111.709)" fill="#00a88f"/>
      </g>
      <g id="Group_13483" data-name="Group 13483" transform="translate(59.042 104.774)">
        <path id="Path_5121" data-name="Path 5121" d="M98.127,164.25a1.3,1.3,0,0,1-.157-.009,1.163,1.163,0,0,1-.791-.439A.905.905,0,0,1,97,163.11c3.122-19.479,14.809-28.472,21.7-32.157-21.125,1.178-35.268,9.477-43.426,16.25a58.8,58.8,0,0,0-14.023,16.451,1.2,1.2,0,0,1-1.491.515,1.066,1.066,0,0,1-.623-.594.889.889,0,0,1,.035-.728c.175-.349,4.39-8.647,14.477-17.044a71.22,71.22,0,0,1,22.895-12.7,1.048,1.048,0,0,1-.94-.985v-4.428c-1.878-.07-4.165-.365-5.375-1.959-1.53-2.014-1.517-4.628.036-7.361l2.727-5.005a4.429,4.429,0,0,1,7.5,0l2.735,5.021c1.548,2.722,1.558,5.331.028,7.345-1.211,1.594-3.5,1.888-5.375,1.959v4.428a.931.931,0,0,1-.257.632,85.618,85.618,0,0,1,26.242-3.943h0a1.1,1.1,0,0,1,1.121.843h0a.994.994,0,0,1-.775,1.11c-.206.059-20.722,6.2-24.957,32.627A1.1,1.1,0,0,1,98.127,164.25Zm-1.11-31.3.039.132a71.168,71.168,0,0,0-23.317,12.828c-10.065,8.378-14.268,16.651-14.441,17a.751.751,0,0,0-.03.616.927.927,0,0,0,.543.515,1.063,1.063,0,0,0,1.318-.447,58.955,58.955,0,0,1,14.058-16.5c8.214-6.819,22.485-15.182,43.82-16.3l.315-.017-.28.147c-6.827,3.578-18.75,12.52-21.9,32.2a.768.768,0,0,0,.151.587,1.025,1.025,0,0,0,.7.385,1.2,1.2,0,0,0,.141.008.964.964,0,0,0,.987-.744c4.249-26.508,24.848-32.679,25.056-32.738a.859.859,0,0,0,.677-.953h0a.96.96,0,0,0-.985-.73,85.292,85.292,0,0,0-26.651,4.083l-.048-.129a.868.868,0,0,0,.575-.78V127.56l.067,0c1.859-.065,4.146-.34,5.337-1.907,1.5-1.967,1.481-4.522-.038-7.194l-2.736-5.022a4.291,4.291,0,0,0-7.254,0l-2.727,5.007c-1.525,2.683-1.542,5.243-.047,7.21,1.19,1.567,3.477,1.842,5.337,1.907l.066,0v4.561a.938.938,0,0,0,1,.862A1.124,1.124,0,0,0,97.017,132.949Zm.722-7.117v-5.882a1.009,1.009,0,0,0-2,0v5.882l-.072,0c-2.032-.082-3.127-.418-3.664-1.125h0c-1.474-1.939-.522-4.288.177-5.515l2.734-5.02a2.151,2.151,0,0,1,3.644,0l2.743,5.035c.7,1.221,1.643,3.561.169,5.5-.536.707-1.632,1.043-3.663,1.125Zm-1-12.532a1.88,1.88,0,0,0-1.7.935l-2.734,5.021c-.683,1.2-1.614,3.488-.188,5.364h0c.5.662,1.547.983,3.487,1.068v-5.739a1.145,1.145,0,0,1,2.272,0v5.739c1.94-.085,2.985-.405,3.487-1.068,1.427-1.876.5-4.157-.179-5.349l-2.744-5.036A1.88,1.88,0,0,0,96.74,113.3Z" transform="translate(-59.077 -111.298)" fill="#00a88f"/>
      </g>
    </g>
  </g>
</svg>
