<svg xmlns="http://www.w3.org/2000/svg" width="70" height="70" viewBox="0 0 70 70">
  <g id="Kiddie_pool" data-name="Kiddie pool" transform="translate(-152 -349)">
    <rect id="Rectangle_3995" data-name="Rectangle 3995" width="70" height="70" transform="translate(152 349)" fill="#fff"/>
    <g id="Group_13472" data-name="Group 13472" transform="translate(4.344 13.007)">
      <g id="Group_13233" data-name="Group 13233" transform="translate(162.418 355.374)">
        <path id="Path_4984" data-name="Path 4984" d="M-.157-4.848A1.173,1.173,0,0,1-1.34-6.01v-29.4A6,6,0,0,1,4.7-41.354a6,6,0,0,1,6.044,5.944v.712a1.173,1.173,0,0,1-1.183,1.163A1.173,1.173,0,0,1,8.383-34.7v-.712A3.652,3.652,0,0,0,4.7-39.028,3.653,3.653,0,0,0,1.025-35.41v29.4A1.172,1.172,0,0,1-.157-4.848" transform="translate(1.34 41.354)" fill="#00a88e"/>
      </g>
      <g id="Group_13235" data-name="Group 13235" transform="translate(187.648 355.374)">
        <path id="Path_4986" data-name="Path 4986" d="M-.157-4.848A1.172,1.172,0,0,1-1.339-6.01v-29.4A6,6,0,0,1,4.7-41.354a6,6,0,0,1,6.044,5.944v.712a1.173,1.173,0,0,1-1.183,1.163A1.173,1.173,0,0,1,8.383-34.7v-.712A3.652,3.652,0,0,0,4.7-39.028,3.652,3.652,0,0,0,1.026-35.41v29.4A1.173,1.173,0,0,1-.157-4.848" transform="translate(1.339 41.354)" fill="#00a88e"/>
      </g>
      <g id="Group_13237" data-name="Group 13237" transform="translate(162.418 365.953)">
        <path id="Path_4988" data-name="Path 4988" d="M-3.507-.309H-28.736a1.173,1.173,0,0,1-1.183-1.163,1.173,1.173,0,0,1,1.183-1.164H-3.507A1.173,1.173,0,0,1-2.324-1.471,1.173,1.173,0,0,1-3.507-.309" transform="translate(29.919 2.635)" fill="#00a88e"/>
      </g>
      <g id="Group_13239" data-name="Group 13239" transform="translate(162.418 373.888)">
        <path id="Path_4990" data-name="Path 4990" d="M-3.507-.309H-28.736a1.173,1.173,0,0,1-1.183-1.163,1.173,1.173,0,0,1,1.183-1.164H-3.507A1.173,1.173,0,0,1-2.324-1.471,1.173,1.173,0,0,1-3.507-.309" transform="translate(29.919 2.635)" fill="#00a88e"/>
      </g>
      <g id="Group_13241" data-name="Group 13241" transform="translate(162.418 381.824)">
        <path id="Path_4992" data-name="Path 4992" d="M-3.507-.309H-28.736a1.173,1.173,0,0,1-1.183-1.163,1.173,1.173,0,0,1,1.183-1.164H-3.507A1.173,1.173,0,0,1-2.324-1.471,1.173,1.173,0,0,1-3.507-.309" transform="translate(29.919 2.635)" fill="#00a88e"/>
      </g>
      <g id="Group_13243" data-name="Group 13243" transform="translate(149.799 389.554)">
        <path id="Path_4994" data-name="Path 4994" d="M-6.021-.768a8.638,8.638,0,0,1-6.31-2.712A8.63,8.63,0,0,1-18.64-.768a8.633,8.633,0,0,1-6.309-2.712A8.636,8.636,0,0,1-31.258-.768a8.633,8.633,0,0,1-6.309-2.712A8.637,8.637,0,0,1-43.877-.768a8.629,8.629,0,0,1-7.311-4,1.15,1.15,0,0,1,.373-1.6A1.192,1.192,0,0,1-49.184-6a6.268,6.268,0,0,0,5.307,2.909A6.27,6.27,0,0,0-38.569-6a1.185,1.185,0,0,1,1-.546,1.186,1.186,0,0,1,1,.546,6.268,6.268,0,0,0,5.307,2.909A6.27,6.27,0,0,0-25.95-6a1.185,1.185,0,0,1,1-.546,1.185,1.185,0,0,1,1,.546A6.268,6.268,0,0,0-18.64-3.094,6.268,6.268,0,0,0-13.333-6a1.24,1.24,0,0,1,2,0A6.27,6.27,0,0,0-6.021-3.094,6.269,6.269,0,0,0-.714-6a1.191,1.191,0,0,1,1.63-.366,1.15,1.15,0,0,1,.373,1.6,8.627,8.627,0,0,1-7.31,4" transform="translate(51.369 6.548)" fill="#00a88e"/>
      </g>
      <g id="Group_13245" data-name="Group 13245" transform="translate(162.392 400.212)">
        <path id="Path_4996" data-name="Path 4996" d="M-6.021-.768a8.638,8.638,0,0,1-6.31-2.712A8.63,8.63,0,0,1-18.64-.768,8.638,8.638,0,0,1-24.95-3.48,8.632,8.632,0,0,1-31.258-.768,8.633,8.633,0,0,1-37.568-3.48,8.637,8.637,0,0,1-43.877-.768a8.629,8.629,0,0,1-7.311-4,1.15,1.15,0,0,1,.373-1.6A1.191,1.191,0,0,1-49.184-6a6.268,6.268,0,0,0,5.307,2.909A6.27,6.27,0,0,0-38.569-6a1.185,1.185,0,0,1,1-.546,1.186,1.186,0,0,1,1,.546,6.268,6.268,0,0,0,5.307,2.909A6.268,6.268,0,0,0-25.951-6a1.24,1.24,0,0,1,2,0A6.27,6.27,0,0,0-18.64-3.094,6.268,6.268,0,0,0-13.333-6a1.24,1.24,0,0,1,2,0A6.27,6.27,0,0,0-6.021-3.094,6.269,6.269,0,0,0-.714-6a1.191,1.191,0,0,1,1.63-.366,1.15,1.15,0,0,1,.373,1.6,8.627,8.627,0,0,1-7.31,4" transform="translate(51.369 6.549)" fill="#00a88e"/>
      </g>
    </g>
  </g>
</svg>
