<svg xmlns="http://www.w3.org/2000/svg" width="70" height="70" viewBox="0 0 70 70">
  <g id="Neighbourhood_park" data-name="Neighbourhood park" transform="translate(-711.321 -52.833)">
    <rect id="Rectangle_4002" data-name="Rectangle 4002" width="70" height="70" transform="translate(711.321 52.833)" fill="#fff"/>
    <g id="Group_13465" data-name="Group 13465" transform="translate(712.593 66.622)">
      <path id="Path_5069" data-name="Path 5069" d="M778.265,109.17H770.4V95.679h7.87a1.124,1.124,0,0,0,1.005-1.627l-3.683-7.367h.429a1.124,1.124,0,0,0,1.005-1.627l-3.683-7.367h.429a1.124,1.124,0,0,0,1.005-1.627L771.09,68.7h.429a1.124,1.124,0,0,0,1.006-1.627L766.9,55.829a1.124,1.124,0,0,0-2.011,0l-5.621,11.242a1.124,1.124,0,0,0,1.006,1.627h.429l-3.683,7.367a1.124,1.124,0,0,0,1.005,1.627h.429l-3.683,7.367a1.124,1.124,0,0,0,1.005,1.627h.429l-3.683,7.367a1.124,1.124,0,0,0,1.005,1.627h7.87V109.17H750.158V105.8h2.249a1.124,1.124,0,0,0,1.124-1.124V101.9a3.975,3.975,0,0,0-3.373-3.93V95.68a1.124,1.124,0,1,0-2.248,0v2.248h-4.5V95.68a1.124,1.124,0,0,0-2.248,0v2.294a3.975,3.975,0,0,0-3.373,3.93v2.77a1.124,1.124,0,0,0,1.124,1.124h2.248v3.373H729.922V95.679h7.87a1.124,1.124,0,0,0,1.005-1.627l-3.683-7.367h.429a1.124,1.124,0,0,0,1.005-1.627l-3.683-7.367h.429A1.124,1.124,0,0,0,734.266,76L726.4,62.51a1.124,1.124,0,0,0-1.942,0L716.585,76a1.124,1.124,0,0,0,.971,1.691h.429L714.3,85.059a1.124,1.124,0,0,0,1.005,1.627h.429l-3.682,7.367a1.124,1.124,0,0,0,1.005,1.627h7.87V109.17h-7.87a1.124,1.124,0,0,0,0,2.248h65.205a1.124,1.124,0,0,0,0-2.248ZM765.9,58.845l3.8,7.6h-7.6ZM763.22,68.7h5.356l3.373,6.745h-12.1Zm-2.249,8.994h9.853l3.373,6.745H757.6Zm-2.248,8.994h14.349l3.373,6.745h-21.1Zm9.423,8.994v13.49h-4.5V95.679ZM725.426,65.308l5.912,10.135H719.514ZM720.5,77.692h9.853l3.373,6.745h-16.6Zm-2.248,8.994H732.6l3.373,6.745H714.879Zm9.423,8.994v13.49h-4.5V95.679Zm12.366,6.224a1.726,1.726,0,0,1,1.727-1.727h7.789a1.726,1.726,0,0,1,1.727,1.727v1.646H740.041V101.9Zm3.373,3.894h4.5v3.373h-4.5Z" transform="translate(-711.934 -55.207)" fill="#00a88f"/>
    </g>
  </g>
</svg>
