<svg xmlns="http://www.w3.org/2000/svg" width="70" height="70" viewBox="0 0 70 70">
  <g id="Private_beach_access" data-name="Private beach access" transform="translate(-391.064 -555.804)">
    <rect id="Rectangle_4000" data-name="Rectangle 4000" width="70" height="70" transform="translate(391.064 555.804)" fill="#fff"/>
    <path id="Path_5067" data-name="Path 5067" d="M129.5,124.8a1.29,1.29,0,0,1-.969-.436l-4.333-4.893h-6.617l2.814,3.178a1.294,1.294,0,1,1-1.938,1.715l-4.333-4.893H97.656l-4.333,4.893a1.294,1.294,0,1,1-1.938-1.715L94.2,119.47H87.582l-4.333,4.893a1.294,1.294,0,1,1-1.938-1.715l2.846-3.214a4.662,4.662,0,0,1-3.382-2.151,1.294,1.294,0,1,1,2.188-1.382,2.119,2.119,0,0,0,1.776.98h40.037a1.291,1.291,0,0,1,.969.436l4.72,5.33a1.294,1.294,0,0,1-.968,2.152Zm.009-7.14a1.293,1.293,0,0,1-1.095-.6,2.121,2.121,0,0,0-1.777-.98H86.6a1.294,1.294,0,0,1-1.094-.6l-3.5-5.55c-.01-.014-.019-.029-.028-.045l-6.99-11.075c-.019-.028-.038-.057-.054-.086l-2.5-3.961a1.647,1.647,0,0,0-1.243-.808,1.278,1.278,0,0,1-.368-.094,1.3,1.3,0,0,1-.741-.83h0a1.292,1.292,0,0,1-.05-.424,1.277,1.277,0,0,1,.1-.438,1.293,1.293,0,0,1,.825-.741,1.465,1.465,0,0,1,.369-.053l12.082-.16a.966.966,0,0,1,.148.007,4.678,4.678,0,0,1,3.5,2.157l2.519,3.99.025.04,3.5,5.547.005.008,3.5,5.54c.011.017.022.034.033.051l3.119,4.941h26.884a4.666,4.666,0,0,1,3.964,2.184,1.294,1.294,0,0,1-1.092,1.986Zm-42.188-4.17h9.372l-1.883-2.983H91a1.294,1.294,0,1,1,0-2.588h2.174l-1.882-2.981H85.223a1.294,1.294,0,1,1,0-2.588h4.435l-1.883-2.983h-.417a1.294,1.294,0,0,1-.953-2.169l-1.54-2.44a2.105,2.105,0,0,0-1.506-.96l-8.4.111,1.812,2.87h6.067a1.294,1.294,0,0,1,0,2.588H78.4l5.4,8.552h2.678a1.294,1.294,0,0,1,0,2.588H85.435Zm15.538-2.666a1.274,1.274,0,0,1-.2-.016,1.293,1.293,0,0,1-1.078-1.479l2.851-18.194a1.294,1.294,0,0,1,2.557.4l-2.851,18.194A1.294,1.294,0,0,1,102.856,110.824Zm23.283-18.883a17.482,17.482,0,0,1-2.717-.216c-3.585-.561-6.652-2.14-8.241-4.135-2.123,1.413-5.526,1.977-9.11,1.415s-6.652-2.141-8.241-4.136c-2.123,1.413-5.525,1.979-9.11,1.415-4.483-.7-8.156-3-9.141-5.706a1.29,1.29,0,0,1-.062-.642l.533-3.4a.011.011,0,0,0,0,0h0s0,0,0,0a.008.008,0,0,1,0,0h0a1.287,1.287,0,0,1,.424-.76,1.266,1.266,0,0,1,.179-.132,1.311,1.311,0,0,1,.131-.07l26.638-12.719a1.274,1.274,0,0,1,.758-.11l1.263.2c.036,0,.072.009.107.017l1.16.182c.045,0,.089.012.133.02l1.252.2a1.291,1.291,0,0,1,.687.337l21.481,20.27a1.293,1.293,0,0,1,.39,1.142l-.533,3.405a1.3,1.3,0,0,1-.256.593C132.466,90.9,129.531,91.942,126.138,91.942Zm-9.421-6.79c.57,1.536,3.188,3.405,7.1,4.017,3.7.582,6.635-.259,7.8-1.438l.37-2.363-19.224-18.14L116.891,81,128.6,82.837a1.294,1.294,0,1,1-.4,2.556l-12.488-1.956a1.4,1.4,0,0,1-.2-.042,1.3,1.3,0,0,1-.881-.9l-4.951-16.558-8.634,12.579L111.106,80.1a1.294,1.294,0,1,1-.4,2.556l-12.083-1.9a1.294,1.294,0,0,1-.866-2.01l8.6-12.523-20.7,9.882,8.39,1.315a1.294,1.294,0,1,1-.4,2.556L82.406,78.215l-.275,1.755c.751,1.48,3.291,3.178,6.989,3.759,3.916.613,6.98-.366,7.992-1.651a1.3,1.3,0,0,1,.281-.274,1.282,1.282,0,0,1,.407-.194,1.31,1.31,0,0,1,.544-.031,1.292,1.292,0,0,1,1.021.852c.57,1.535,3.187,3.4,7.1,4.019s6.979-.365,7.992-1.651a1.286,1.286,0,0,1,.284-.275,1.3,1.3,0,0,1,.4-.192,1.328,1.328,0,0,1,.545-.031,1.277,1.277,0,0,1,.5.191,1.3,1.3,0,0,1,.346.327A1.281,1.281,0,0,1,116.718,85.152Z" transform="translate(323.712 497.045)" fill="#00a88f"/>
  </g>
</svg>
