<svg xmlns="http://www.w3.org/2000/svg" width="70" height="70" viewBox="0 0 70 70">
  <g id="Private_courtyards" data-name="Private courtyards" transform="translate(-156.8 -148.688)">
    <rect id="Rectangle_3989" data-name="Rectangle 3989" width="70" height="70" transform="translate(156.8 148.688)" fill="#fff"/>
    <g id="Group_13227" data-name="Group 13227" transform="translate(180.897 200.525)">
      <path id="Path_4978" data-name="Path 4978" d="M0,0A1.049,1.049,0,0,1-.695-.261,1.084,1.084,0,0,1-.807-1.778l24.5-28.763A9.193,9.193,0,0,0,16.85-41.312a17.6,17.6,0,0,0-2.457-.377,11.275,11.275,0,0,0-5.028,1.2l-.927.853L-17.506-11.813a1.056,1.056,0,0,1-1.506.045,1.083,1.083,0,0,1-.044-1.52l26-27.881L8.04-42.18a1.065,1.065,0,0,1,.234-.163,13.415,13.415,0,0,1,6.191-1.5,18.761,18.761,0,0,1,2.868.431A11.35,11.35,0,0,1,25.713-29.8a1.085,1.085,0,0,1-.23.458L.807-.374A1.059,1.059,0,0,1,0,0" fill="#00a88e"/>
    </g>
    <g id="Group_13228" data-name="Group 13228" transform="translate(180.897 200.525)">
      <path id="Path_4979" data-name="Path 4979" d="M0,0A1.049,1.049,0,0,1-.695-.261,1.084,1.084,0,0,1-.807-1.778l24.5-28.763A9.193,9.193,0,0,0,16.85-41.312a17.6,17.6,0,0,0-2.457-.377,11.275,11.275,0,0,0-5.028,1.2l-.927.853L-17.506-11.813a1.056,1.056,0,0,1-1.506.045,1.083,1.083,0,0,1-.044-1.52l26-27.881L8.04-42.18a1.065,1.065,0,0,1,.234-.163,13.415,13.415,0,0,1,6.191-1.5,18.761,18.761,0,0,1,2.868.431A11.35,11.35,0,0,1,25.713-29.8a1.085,1.085,0,0,1-.23.458L.807-.374A1.059,1.059,0,0,1,0,0Z" fill="none" stroke="#00a88e" stroke-width="1"/>
    </g>
    <g id="Group_13229" data-name="Group 13229" transform="translate(174.801 210.659)">
      <path id="Path_4980" data-name="Path 4980" d="M0,0A16.486,16.486,0,0,1-11.491-4.812,14.457,14.457,0,0,1-16-14.885,13.752,13.752,0,0,1-2.335-28.691a18.756,18.756,0,0,1,2.867.431A11.349,11.349,0,0,1,8.913-14.654,9.211,9.211,0,0,1,4.82-8.879,9.053,9.053,0,0,1-2.117-7.72a7.651,7.651,0,0,1-5.651-9.172A6.271,6.271,0,0,1-.248-21.62,5.177,5.177,0,0,1,3-19.267a1.081,1.081,0,0,1-.342,1.481,1.058,1.058,0,0,1-1.466-.347A3.072,3.072,0,0,0-.731-19.524,4.138,4.138,0,0,0-5.693-16.4,5.5,5.5,0,0,0-1.635-9.815a6.946,6.946,0,0,0,5.329-.891,7.076,7.076,0,0,0,3.145-4.435A9.2,9.2,0,0,0,.05-26.165a17.605,17.605,0,0,0-2.457-.377A11.6,11.6,0,0,0-13.872-14.885,12.294,12.294,0,0,0-10-6.349,14.345,14.345,0,0,0,.305-2.155H24.49L47.433-30.723H24.583A1.071,1.071,0,0,1,23.518-31.8a1.07,1.07,0,0,1,1.065-1.075H49.668a1.062,1.062,0,0,1,.961.612,1.082,1.082,0,0,1-.134,1.141L25.824-.4A1.06,1.06,0,0,1,25,0H.327C.218,0,.108,0,0,0" fill="#00a88e"/>
    </g>
    <g id="Group_13230" data-name="Group 13230" transform="translate(174.801 210.659)">
      <path id="Path_4981" data-name="Path 4981" d="M0,0A16.486,16.486,0,0,1-11.491-4.812,14.457,14.457,0,0,1-16-14.885,13.752,13.752,0,0,1-2.335-28.691a18.756,18.756,0,0,1,2.867.431A11.349,11.349,0,0,1,8.913-14.654,9.211,9.211,0,0,1,4.82-8.879,9.053,9.053,0,0,1-2.117-7.72a7.651,7.651,0,0,1-5.651-9.172A6.271,6.271,0,0,1-.248-21.62,5.177,5.177,0,0,1,3-19.267a1.081,1.081,0,0,1-.342,1.481,1.058,1.058,0,0,1-1.466-.347A3.072,3.072,0,0,0-.731-19.524,4.138,4.138,0,0,0-5.693-16.4,5.5,5.5,0,0,0-1.635-9.815a6.946,6.946,0,0,0,5.329-.891,7.076,7.076,0,0,0,3.145-4.435A9.2,9.2,0,0,0,.05-26.165a17.605,17.605,0,0,0-2.457-.377A11.6,11.6,0,0,0-13.872-14.885,12.294,12.294,0,0,0-10-6.349,14.345,14.345,0,0,0,.305-2.155H24.49L47.433-30.723H24.583A1.071,1.071,0,0,1,23.518-31.8a1.07,1.07,0,0,1,1.065-1.075H49.668a1.062,1.062,0,0,1,.961.612,1.082,1.082,0,0,1-.134,1.141L25.824-.4A1.06,1.06,0,0,1,25,0H.327C.218,0,.108,0,0,0Z" fill="none" stroke="#00a88e" stroke-width="1"/>
    </g>
    <g id="Group_13231" data-name="Group 13231" transform="translate(191.575 210.059)">
      <path id="Path_4982" data-name="Path 4982" d="M0,0A1.055,1.055,0,0,1-.689-.256,1.084,1.084,0,0,1-.813-1.771L24.273-31.654a1.058,1.058,0,0,1,1.5-.125,1.084,1.084,0,0,1,.124,1.516L.813-.38A1.061,1.061,0,0,1,0,0" fill="#00a88e"/>
    </g>
    <g id="Group_13232" data-name="Group 13232" transform="translate(191.575 210.059)">
      <path id="Path_4983" data-name="Path 4983" d="M0,0A1.055,1.055,0,0,1-.689-.256,1.084,1.084,0,0,1-.813-1.771L24.273-31.654a1.058,1.058,0,0,1,1.5-.125,1.084,1.084,0,0,1,.124,1.516L.813-.38A1.061,1.061,0,0,1,0,0Z" fill="none" stroke="#00a88e" stroke-width="1"/>
    </g>
  </g>
</svg>
