<svg xmlns="http://www.w3.org/2000/svg" width="70" height="70" viewBox="0 0 70 70">
  <g id="Supermarket" transform="translate(-72.719 -16.002)">
    <rect id="Rectangle_4003" data-name="Rectangle 4003" width="70" height="70" transform="translate(72.719 16.002)" fill="#fff"/>
    <g id="Group_13512" data-name="Group 13512" transform="translate(0.597 2.691)">
      <path id="Path_5149" data-name="Path 5149" d="M150.02,58.083a5.258,5.258,0,0,0,2.194-4.387V51.283l-6.581-15.356V32.856a3.232,3.232,0,0,0-3.291-3.291h-8.775V20.791a3.232,3.232,0,0,0-3.291-3.291H110.534a3.232,3.232,0,0,0-3.291,3.291v8.775H98.468a3.232,3.232,0,0,0-3.291,3.291v3.071L88.6,51.283V53.7a5.4,5.4,0,0,0,2.194,4.387V81.117H87.5v2.194h65.811V81.117H150.02Zm-19.743,20.84h17.55v2.194h-17.55ZM146.73,56.986a3.232,3.232,0,0,1-3.291-3.291V52.6h6.581v1.1A3.232,3.232,0,0,1,146.73,56.986Zm-12.065-3.4V52.6h6.581v1.1a3.291,3.291,0,0,1-6.581,0Zm-43.874.11V52.6h6.581v1.1a3.291,3.291,0,0,1-6.581,0Zm17.33-16.453.219.219-1.865,12.943h-6.252l3.51-13.162Zm2.413,1.1h5.375l-.658,12.065h-6.691l1.755-12.065Zm19.854,0,1.755,12.065h-6.691l-.658-12.065h5.594Zm2.3-1.1h4.387l3.51,13.162h-6.252l-1.865-12.943C132.581,37.353,132.691,37.353,132.691,37.243Zm-9.981,2.523.548,10.639h-5.813l.548-10.639,2.3,2.3ZM99.567,52.709V52.6h6.581v1.1a3.291,3.291,0,1,1-6.581,0Zm8.775,0,6.91-.11-.11,1.207a3.425,3.425,0,0,1-3.62,3.181,3.378,3.378,0,0,1-3.181-3.4Zm8.994,1.207.11-1.316h6.033l.11,1.316c0,.219.11.439.11.658a3.317,3.317,0,0,1-4.058,2.3,3.461,3.461,0,0,1-2.3-2.3Zm8.336-.11-.11-1.207h6.91v.987a3.417,3.417,0,0,1-3.4,3.4A3.378,3.378,0,0,1,125.671,53.806Zm23.8-3.4h-6.581l-3.51-13.162h4.387Zm-7.13-18.646a1.036,1.036,0,0,1,1.1,1.1V35.05h-9.872V31.759ZM109.439,20.791a1.036,1.036,0,0,1,1.1-1.1h19.743a1.036,1.036,0,0,1,1.1,1.1V35.05a1.036,1.036,0,0,1-1.1,1.1h-7.02L120.407,39l-2.852-2.852h-7.02a1.036,1.036,0,0,1-1.1-1.1ZM98.47,31.759h8.775V35.05H97.374V32.856A1.036,1.036,0,0,1,98.47,31.759Zm-1.426,5.484h4.387l-3.51,13.162H91.341ZM92.986,59.07a5.5,5.5,0,0,0,5.484-2.084,5.431,5.431,0,0,0,7.568,1.207,6.286,6.286,0,0,0,1.207-1.207,5.594,5.594,0,0,0,7.788,1.207,9.889,9.889,0,0,0,1.1-.987,5.44,5.44,0,0,0,7.678.987l.987-.987a5.459,5.459,0,0,0,7.788.877,3.111,3.111,0,0,0,.987-1.1,5.431,5.431,0,0,0,7.568,1.207,6.285,6.285,0,0,0,1.207-1.207,5.3,5.3,0,0,0,5.484,2.084V76.73h-17.55V61.374h-2.194V81.117h-35.1Z" transform="translate(-13.283)" fill="#00a88f"/>
      <path id="Path_5150" data-name="Path 5150" d="M148.75,367.5v17.55h30.712V367.5Zm28.518,15.356H150.944V369.694h26.324Z" transform="translate(-66.855 -306.126)" fill="#00a88f"/>
      <path id="Path_5151" data-name="Path 5151" d="M177.69,399.7l3.257-3.257L182.5,398l-3.257,3.257Z" transform="translate(-92.167 -331.443)" fill="#00a88f"/>
      <path id="Path_5152" data-name="Path 5152" d="M186.57,411.3l6.592-6.592,1.551,1.551-6.592,6.592Z" transform="translate(-99.934 -338.672)" fill="#00a88f"/>
      <path id="Path_5153" data-name="Path 5153" d="M446.25,402.5h2.194v5.484H446.25Z" transform="translate(-327.063 -336.739)" fill="#00a88f"/>
      <path id="Path_5154" data-name="Path 5154" d="M291.163,64.565h10.53l1.1-5.484h1.316V56.887h-2.742L298.073,52.5h-3.29l-3.291,4.387H288.75v2.194h1.316Zm8.775-2.194h-7.02l-.658-3.291H300.6Zm-4.058-7.678h1.1l1.645,2.194h-4.387Z" transform="translate(-189.306 -30.612)" fill="#00a88f"/>
    </g>
  </g>
</svg>
