<svg xmlns="http://www.w3.org/2000/svg" width="70" height="70" viewBox="0 0 70 70">
  <g id="White_sand_beaches" data-name="White sand beaches" transform="translate(-723.978 -340.466)">
    <rect id="Rectangle_3999" data-name="Rectangle 3999" width="70" height="70" transform="translate(723.978 340.466)" fill="#fff"/>
    <g id="Group_13475" data-name="Group 13475" transform="translate(-3.996 2.098)">
      <g id="Group_13256" data-name="Group 13256" transform="translate(741.801 371.036)">
        <path id="Path_5007" data-name="Path 5007" d="M-.177-3.088A.645.645,0,0,1-.4-3.127a.668.668,0,0,1-.41-.854,16.961,16.961,0,0,1,3.764-6.046,16.128,16.128,0,0,1,11.43-4.72,14.99,14.99,0,0,1,11.3,4.72,5.286,5.286,0,0,1,.691.735q.225.229.493.541a.671.671,0,0,1-.073.945.67.67,0,0,1-.945-.072c-.167-.194-.319-.361-.457-.5a.586.586,0,0,1-.062-.07,4.249,4.249,0,0,0-.58-.616,13.736,13.736,0,0,0-10.365-4.342A14.8,14.8,0,0,0,3.9-9.08,15.606,15.606,0,0,0,.454-3.535a.67.67,0,0,1-.632.447" transform="translate(0.848 14.746)" fill="#00a88e"/>
      </g>
      <g id="Group_13257" data-name="Group 13257" transform="translate(741.801 371.036)">
        <path id="Path_5008" data-name="Path 5008" d="M-.177-3.088A.645.645,0,0,1-.4-3.127a.668.668,0,0,1-.41-.854,16.961,16.961,0,0,1,3.764-6.046,16.128,16.128,0,0,1,11.43-4.72,14.99,14.99,0,0,1,11.3,4.72,5.286,5.286,0,0,1,.691.735q.225.229.493.541a.671.671,0,0,1-.073.945.67.67,0,0,1-.945-.072c-.167-.194-.319-.361-.457-.5a.586.586,0,0,1-.062-.07,4.249,4.249,0,0,0-.58-.616,13.736,13.736,0,0,0-10.365-4.342A14.8,14.8,0,0,0,3.9-9.08,15.606,15.606,0,0,0,.454-3.535.67.67,0,0,1-.177-3.088Z" transform="translate(0.848 14.746)" fill="none" stroke="#00a88e" stroke-width="1.6"/>
      </g>
      <g id="Group_13258" data-name="Group 13258" transform="translate(729.473 363.084)">
        <path id="Path_5009" data-name="Path 5009" d="M-15.984-5.218H-75.661a.67.67,0,0,1-.67-.67.67.67,0,0,1,.67-.67h34.613l13.473-13.208a.672.672,0,0,1,.823-.091l4.05,2.527,7.083-7.38a.669.669,0,0,1,.908-.055l5.136,4.2a.67.67,0,0,1,.095.943.671.671,0,0,1-.942.095l-4.658-3.808-7.032,7.326a.668.668,0,0,1-.837.105l-4.064-2.536L-39.135-6.558h23.15a.67.67,0,0,1,.67.67.67.67,0,0,1-.67.67" transform="translate(76.331 24.917)" fill="#00a88e"/>
      </g>
      <g id="Group_13259" data-name="Group 13259" transform="translate(729.473 363.084)">
        <path id="Path_5010" data-name="Path 5010" d="M-15.984-5.218H-75.661a.67.67,0,0,1-.67-.67.67.67,0,0,1,.67-.67h34.613l13.473-13.208a.672.672,0,0,1,.823-.091l4.05,2.527,7.083-7.38a.669.669,0,0,1,.908-.055l5.136,4.2a.67.67,0,0,1,.095.943.671.671,0,0,1-.942.095l-4.658-3.808-7.032,7.326a.668.668,0,0,1-.837.105l-4.064-2.536L-39.135-6.558h23.15a.67.67,0,0,1,.67.67A.67.67,0,0,1-15.984-5.218Z" transform="translate(76.331 24.917)" fill="none" stroke="#00a88e" stroke-width="1.6"/>
      </g>
      <g id="Group_13260" data-name="Group 13260" transform="translate(741.534 381.622)">
        <path id="Path_5011" data-name="Path 5011" d="M-.177-5.277a.67.67,0,0,1-.668-.632.671.671,0,0,1,.63-.708c11.26-.648,20.275-2.153,26.794-4.474,7.144-2.532,10.766-5.537,10.766-8.927A5.574,5.574,0,0,0,35.4-24.049.67.67,0,0,1,35.391-25a.67.67,0,0,1,.948-.01,6.931,6.931,0,0,1,2.346,4.99c0,4.076-3.814,7.409-11.658,10.191C20.389-7.464,11.249-5.934-.139-5.278H-.177" transform="translate(0.846 25.199)" fill="#00a88e"/>
      </g>
      <g id="Group_13261" data-name="Group 13261" transform="translate(741.534 381.622)">
        <path id="Path_5012" data-name="Path 5012" d="M-.177-5.277a.67.67,0,0,1-.668-.632.671.671,0,0,1,.63-.708c11.26-.648,20.275-2.153,26.794-4.474,7.144-2.532,10.766-5.537,10.766-8.927A5.574,5.574,0,0,0,35.4-24.049.67.67,0,0,1,35.391-25a.67.67,0,0,1,.948-.01,6.931,6.931,0,0,1,2.346,4.99c0,4.076-3.814,7.409-11.658,10.191C20.389-7.464,11.249-5.934-.139-5.278Z" transform="translate(0.846 25.199)" fill="none" stroke="#00a88e" stroke-width="1.6"/>
      </g>
      <g id="Group_13262" data-name="Group 13262" transform="translate(748.591 384.883)">
        <path id="Path_5013" data-name="Path 5013" d="M-1.408-2.757H-4.624a.671.671,0,0,1-.67-.67.671.671,0,0,1,.67-.67h3.216a.67.67,0,0,1,.67.67.67.67,0,0,1-.67.67M3.728-7.045H-1.408a.669.669,0,0,1-.67-.67.67.67,0,0,1,.67-.67H3.728a.671.671,0,0,1,.67.67.67.67,0,0,1-.67.67m-5.986-3.483h-3.8a.671.671,0,0,1-.67-.67.67.67,0,0,1,.67-.67h3.8a.67.67,0,0,1,.67.67.671.671,0,0,1-.67.67m9.425-1.3h-4.6a.669.669,0,0,1-.67-.67.67.67,0,0,1,.67-.67h4.6a.671.671,0,0,1,.67.67.67.67,0,0,1-.67.67" transform="translate(6.724 13.164)" fill="#00a88e"/>
      </g>
      <g id="Group_13263" data-name="Group 13263" transform="translate(748.591 384.883)">
        <path id="Path_5014" data-name="Path 5014" d="M-1.408-2.757H-4.624a.671.671,0,0,1-.67-.67.671.671,0,0,1,.67-.67h3.216a.67.67,0,0,1,.67.67A.67.67,0,0,1-1.408-2.757ZM3.728-7.045H-1.408a.669.669,0,0,1-.67-.67.67.67,0,0,1,.67-.67H3.728a.671.671,0,0,1,.67.67A.67.67,0,0,1,3.728-7.045Zm-5.986-3.483h-3.8a.671.671,0,0,1-.67-.67.67.67,0,0,1,.67-.67h3.8a.67.67,0,0,1,.67.67A.671.671,0,0,1-2.257-10.528Zm9.425-1.3h-4.6a.669.669,0,0,1-.67-.67.67.67,0,0,1,.67-.67h4.6a.671.671,0,0,1,.67.67A.67.67,0,0,1,7.168-11.824Z" transform="translate(6.724 13.164)" fill="none" stroke="#00a88e" stroke-width="1.6"/>
      </g>
      <g id="Group_13264" data-name="Group 13264" transform="translate(737.447 362.177)">
        <path id="Path_5015" data-name="Path 5015" d="M-1.894-.734a.68.68,0,0,1-.373-.113,1.249,1.249,0,0,1-.33-.309,3.6,3.6,0,0,0-2.56-1.009,3.6,3.6,0,0,0-2.553,1,1.38,1.38,0,0,1-.19.231.668.668,0,0,1-.947,0,.669.669,0,0,1,0-.947l.016-.017a.568.568,0,0,1,.126-.17A4.958,4.958,0,0,1-5.157-3.505,4.927,4.927,0,0,1-1.918-2.344,4.93,4.93,0,0,1,1.319-3.505,4.957,4.957,0,0,1,4.867-2.067l.186.186a.669.669,0,0,1,0,.947.67.67,0,0,1-.948,0l-.182-.183A3.6,3.6,0,0,0,1.319-2.165,3.608,3.608,0,0,0-1.3-1.1a.665.665,0,0,1-.426.345.657.657,0,0,1-.17.023" transform="translate(9.043 3.505)" fill="#00a88e"/>
      </g>
      <g id="Group_13265" data-name="Group 13265" transform="translate(737.447 362.177)">
        <path id="Path_5016" data-name="Path 5016" d="M-1.894-.734a.68.68,0,0,1-.373-.113,1.249,1.249,0,0,1-.33-.309,3.6,3.6,0,0,0-2.56-1.009,3.6,3.6,0,0,0-2.553,1,1.38,1.38,0,0,1-.19.231.668.668,0,0,1-.947,0,.669.669,0,0,1,0-.947l.016-.017a.568.568,0,0,1,.126-.17A4.958,4.958,0,0,1-5.157-3.505,4.927,4.927,0,0,1-1.918-2.344,4.93,4.93,0,0,1,1.319-3.505,4.957,4.957,0,0,1,4.867-2.067l.186.186a.669.669,0,0,1,0,.947.67.67,0,0,1-.948,0l-.182-.183A3.6,3.6,0,0,0,1.319-2.165,3.608,3.608,0,0,0-1.3-1.1a.665.665,0,0,1-.426.345A.657.657,0,0,1-1.894-.734Z" transform="translate(9.043 3.505)" fill="none" stroke="#00a88e" stroke-width="1.6"/>
      </g>
      <g id="Group_13266" data-name="Group 13266" transform="translate(731.327 356.192)">
        <path id="Path_5017" data-name="Path 5017" d="M-1.407-.643a.671.671,0,0,1-.471-.213l-.091-.091a2.428,2.428,0,0,0-1.8-.785,2.434,2.434,0,0,0-1.8.742.669.669,0,0,1-.947,0,.67.67,0,0,1,0-.948A3.76,3.76,0,0,1-3.773-3.072a3.672,3.672,0,0,1,2.346.81,3.67,3.67,0,0,1,2.345-.81A3.763,3.763,0,0,1,3.67-1.938a.67.67,0,0,1,0,.948.67.67,0,0,1-.948,0,2.434,2.434,0,0,0-1.8-.742A2.385,2.385,0,0,0-.842-.99a.617.617,0,0,1-.475.34.5.5,0,0,1-.09.007" transform="translate(6.72 3.072)" fill="#00a88e"/>
      </g>
      <g id="Group_13267" data-name="Group 13267" transform="translate(731.327 356.192)">
        <path id="Path_5018" data-name="Path 5018" d="M-1.407-.643a.671.671,0,0,1-.471-.213l-.091-.091a2.428,2.428,0,0,0-1.8-.785,2.434,2.434,0,0,0-1.8.742.669.669,0,0,1-.947,0,.67.67,0,0,1,0-.948A3.76,3.76,0,0,1-3.773-3.072a3.672,3.672,0,0,1,2.346.81,3.67,3.67,0,0,1,2.345-.81A3.763,3.763,0,0,1,3.67-1.938a.67.67,0,0,1,0,.948.67.67,0,0,1-.948,0,2.434,2.434,0,0,0-1.8-.742A2.385,2.385,0,0,0-.842-.99a.617.617,0,0,1-.475.34A.5.5,0,0,1-1.407-.643Z" transform="translate(6.72 3.072)" fill="none" stroke="#00a88e" stroke-width="1.6"/>
      </g>
    </g>
  </g>
</svg>
